<svg class="animated" id="freepik_stories-champagne-toast" xmlns="http://www.w3.org/2000/svg" viewBox="0 0 500 500" version="1.1" xmlns:xlink="http://www.w3.org/1999/xlink" xmlns:svgjs="http://svgjs.com/svgjs"><style>svg#freepik_stories-champagne-toast:not(.animated) .animable {opacity: 0;}svg#freepik_stories-champagne-toast.animated #freepik--character-2--inject-14 {animation: 3s Infinite  linear wind;animation-delay: 0s;}svg#freepik_stories-champagne-toast.animated #freepik--character-1--inject-14 {animation: 3s Infinite  linear wind;animation-delay: 0s;}            @keyframes wind {                0% {                    transform: rotate( 0deg );                }                25% {                    transform: rotate( 1deg );                }                75% {                    transform: rotate( -1deg );                }            }        </style><g id="freepik--background-complete--inject-14" class="animable" style="transform-origin: 251.285px 247.225px;"><rect x="34.44" y="63.41" width="112.07" height="185.5" style="fill: rgb(224, 224, 224); transform-origin: 90.475px 156.16px;" id="elode9dqmlxj8" class="animable"></rect><rect x="30.71" y="63.41" width="112.07" height="185.5" style="fill: rgb(235, 235, 235); transform-origin: 86.745px 156.16px;" id="el46lrzmqu5hg" class="animable"></rect><rect x="35.48" y="67.17" width="102.52" height="177.98" style="fill: rgb(255, 255, 255); transform-origin: 86.74px 156.16px;" id="eluujvt5rdi2d" class="animable"></rect><rect x="55" y="90.3" width="63.04" height="131.72" style="fill: rgb(235, 235, 235); transform-origin: 86.52px 156.16px;" id="elyyn78ts12kl" class="animable"></rect><path d="M55,175.41c-.14-12.31,10.92-24.32,23.1-26,5.81-.82,12,.34,17.42-1.89,9.69-4,12.77-16.85,22.52-20.67l.45,95.21H55Z" style="fill: rgb(224, 224, 224); transform-origin: 86.7443px 174.455px;" id="elxbk7smf9ttb" class="animable"></path><circle cx="258.61" cy="110.79" r="88.72" style="fill: rgb(245, 245, 245); transform-origin: 258.61px 110.79px;" id="elbn6kl3qkow9" class="animable"></circle><path d="M291.54,425.77c-.71-5.85-2.46-10-4.93-16.64-2.06-5.6-7-15.89-7.51-22.17H266.8c-.5,6.28-5.45,16.57-7.51,22.17-2.47,6.68-4.22,10.79-4.93,16.64-.43,3.49-1.22,32-1.5,42.61a3.89,3.89,0,0,0,3.89,4h32.4a3.89,3.89,0,0,0,3.89-4C292.76,457.74,292,429.26,291.54,425.77Z" style="fill: rgb(224, 224, 224); transform-origin: 272.95px 429.67px;" id="elk4ml8w2mct" class="animable"></path><rect x="266.26" y="345.78" width="12.74" height="15.24" style="fill: rgb(235, 235, 235); transform-origin: 272.63px 353.4px;" id="eleevxf21oo0b" class="animable"></rect><polygon points="282.46 398.81 272.95 404.04 263.25 398.81 266.26 386.96 266.26 356.46 279.01 356.46 279.01 386.96 282.46 398.81" style="fill: rgb(235, 235, 235); transform-origin: 272.855px 380.25px;" id="elqourkolm3vs" class="animable"></polygon><rect x="265.07" y="359.58" width="15.28" height="2.89" style="fill: rgb(235, 235, 235); transform-origin: 272.71px 361.025px;" id="elldz5qzhv6p" class="animable"></rect><path d="M280.35,362.46a23,23,0,0,1-.22-2.88l.22.21c-3.2.11-8.85.18-15.28.18h0l.39-.39h0v2.86l-.39-.39c4.25,0,8,.1,10.75.18s4.46.14,4.53.21a34.16,34.16,0,0,1-4.25.22c-2.73.08-6.62.16-11,.17h-.39v-.39c0-.46,0-.94,0-1.42V359.6h0l.4-.4h0c6.43,0,12.08.07,15.28.18h.22v.21A19.28,19.28,0,0,1,280.35,362.46Z" style="fill: rgb(224, 224, 224); transform-origin: 272.66px 361.015px;" id="eleenids2x6vi" class="animable"></path><path d="M278.5,387.15c0,.22-2.48.4-5.53.4s-5.52-.18-5.52-.4,2.47-.39,5.52-.39S278.5,386.94,278.5,387.15Z" style="fill: rgb(224, 224, 224); transform-origin: 272.975px 387.155px;" id="elml92mlfo0d" class="animable"></path><polygon points="258.62 445.36 273.55 427.88 289.25 444.33 273.93 461.12 258.62 445.36" style="fill: rgb(250, 250, 250); transform-origin: 273.935px 444.5px;" id="eliz2fic5966" class="animable"></polygon><path d="M258.61,445.36a13.35,13.35,0,0,1,1.21,1.12l3.19,3.17,11.16,11.24h-.49L289,444.06v.54l-.36-.37L273.3,428.11h.51l-10.89,12.48-3.12,3.53a15.13,15.13,0,0,1-1.19,1.25,15.46,15.46,0,0,1,1-1.26l2.95-3.58,10.76-12.87.24-.29.27.28,15.38,16,.36.38.25.26-.25.27-15.36,16.76-.24.27-.25-.26-11.06-11.63-3-3.23A12.46,12.46,0,0,1,258.61,445.36Z" style="fill: rgb(235, 235, 235); transform-origin: 274.215px 444.48px;" id="el8umcyg26k9i" class="animable"></path><g id="elm59ombfn57"><g style="opacity: 0.3; transform-origin: 262.369px 420.959px;" class="animable"><path d="M262.71,407.55c.86-1.19,2.91-3.37,4.89-.55a95.37,95.37,0,0,0-9.29,29.3c-1.62-4.59-1.34-9.55-.49-14.29a55.77,55.77,0,0,1,4.3-13.41A6,6,0,0,1,262.71,407.55Z" style="fill: rgb(255, 255, 255); transform-origin: 262.369px 420.959px;" id="ela7h04memmyb" class="animable"></path></g></g><rect x="365.93" y="73.96" width="105.93" height="153.54" style="fill: rgb(224, 224, 224); transform-origin: 418.895px 150.73px;" id="ell30oxh999fc" class="animable"></rect><rect x="360.62" y="73.96" width="105.93" height="153.54" style="fill: rgb(245, 245, 245); transform-origin: 413.585px 150.73px;" id="el50lhze61fs" class="animable"></rect><rect x="373.78" y="90.59" width="79.61" height="120.28" style="fill: rgb(255, 255, 255); transform-origin: 413.585px 150.73px;" id="elaw6o9j5h7vo" class="animable"></rect><path d="M453.38,210.86s0-.2,0-.58,0-1,0-1.71c0-1.51,0-3.72,0-6.6,0-5.76,0-14.16-.07-24.77,0-21.21-.08-51.25-.13-86.61l.26.26-79.59,0h0l.29-.28c0,45.37,0,87.2-.06,120.27l-.23-.23,57.94.12,16,.06,4.2,0,1.45,0s-.46,0-1.4,0l-4.16,0-16,.06-58.08.12h-.23v-.23c0-33.07,0-74.9-.06-120.27V90.3h.3l79.59,0h.27v.27c0,35.43-.1,65.53-.13,86.78,0,10.59-.06,19-.07,24.72,0,2.85,0,5,0,6.54,0,.73,0,1.29,0,1.68S453.38,210.86,453.38,210.86Z" style="fill: rgb(224, 224, 224); transform-origin: 413.59px 150.635px;" id="elf0463thkmaj" class="animable"></path><path d="M466.84,74A18.61,18.61,0,0,1,465,76.7c-1.23,1.65-3,3.88-5,6.3s-3.85,4.57-5.23,6.09a18.83,18.83,0,0,1-2.33,2.38,19.34,19.34,0,0,1,2-2.64l5.1-6.19,5.09-6.19A20.83,20.83,0,0,1,466.84,74Z" style="fill: rgb(224, 224, 224); transform-origin: 459.64px 82.735px;" id="elvhsxi8w90ao" class="animable"></path><path d="M453.79,210.48a98.77,98.77,0,0,0,13.88,17.36" style="fill: rgb(255, 255, 255); transform-origin: 460.73px 219.16px;" id="elv0gqng1nbil" class="animable"></path><path d="M467.67,227.84a16.85,16.85,0,0,1-2.42-2.2,76.62,76.62,0,0,1-5.23-5.91,73.15,73.15,0,0,1-4.61-6.41,16,16,0,0,1-1.62-2.84,21.12,21.12,0,0,1,1.95,2.61c1.17,1.64,2.81,3.88,4.73,6.28s3.74,4.49,5.08,6A21.79,21.79,0,0,1,467.67,227.84Z" style="fill: rgb(224, 224, 224); transform-origin: 460.73px 219.16px;" id="eloz4vty59gzp" class="animable"></path><path d="M360.6,227.37l13.88-17.12" style="fill: rgb(255, 255, 255); transform-origin: 367.54px 218.81px;" id="elsxy2d8zl4di" class="animable"></path><path d="M374.48,210.25a105.06,105.06,0,0,1-6.71,8.74,104.75,104.75,0,0,1-7.17,8.38,108.69,108.69,0,0,1,6.72-8.74A103.55,103.55,0,0,1,374.48,210.25Z" style="fill: rgb(224, 224, 224); transform-origin: 367.54px 218.81px;" id="elhld206r69of" class="animable"></path><path d="M360.62,74A95,95,0,0,1,367.35,82a95.46,95.46,0,0,1,6.29,8.41,97.1,97.1,0,0,1-6.74-8.06A94.82,94.82,0,0,1,360.62,74Z" style="fill: rgb(224, 224, 224); transform-origin: 367.13px 82.205px;" id="el3jrsatgjn6l" class="animable"></path><rect x="401.93" y="115.01" width="26.66" height="75.68" style="fill: rgb(224, 224, 224); transform-origin: 415.26px 152.85px;" id="el2j6c60c4ffm" class="animable"></rect></g><g id="freepik--Table--inject-14" class="animable" style="transform-origin: 250px 470.62px;"><path d="M482.28,470.62c0,.15-104,.26-232.27.26s-232.29-.11-232.29-.26,104-.26,232.29-.26S482.28,470.48,482.28,470.62Z" style="fill: rgb(38, 50, 56); transform-origin: 250px 470.62px;" id="el5u0yffeyze" class="animable"></path></g><g id="freepik--Lines--inject-14" class="animable" style="transform-origin: 209.175px 282.11px;"><path d="M209.68,295.89c-.14,0-.26-6.17-.26-13.78s.12-13.78.26-13.78.26,6.17.26,13.78S209.82,295.89,209.68,295.89Z" style="fill: rgb(38, 50, 56); transform-origin: 209.68px 282.11px;" id="el9yohzp9acf" class="animable"></path><path d="M220.16,276.48a70.76,70.76,0,0,1-2.28,8.11,67,67,0,0,1-2.78,8,67.26,67.26,0,0,1,2.28-8.11A68.63,68.63,0,0,1,220.16,276.48Z" style="fill: rgb(38, 50, 56); transform-origin: 217.63px 284.535px;" id="el0huhkl1iftlm" class="animable"></path><path d="M203,292.56a42,42,0,0,1-2.65-6,39.27,39.27,0,0,1-2.16-6.15A80.9,80.9,0,0,1,203,292.56Z" style="fill: rgb(38, 50, 56); transform-origin: 200.595px 286.485px;" id="el1thizc4tjam" class="animable"></path></g><g id="freepik--champagne-cups--inject-14" class="animable" style="transform-origin: 258.516px 150.591px;"><path d="M324.89,216.05a14,14,0,0,0-3.41-2c-6.36-2.62-14.8-1.64-19.83-.66a3.78,3.78,0,0,1-.17-.35c-2.24-5.23-9.42-48.89-10-56.74s.69-11.07.69-11.07c13.17-22.31,12.08-25.21,9.13-45.43-2.77-19-14.1-51.51-14.1-51.51-6.85-1.29-16.33.37-16.33.37s-11.67,2-17.68,5.57c0,0,1,34.31,4.79,53.13,4.08,20,4,23.12,24,39.65,0,0,2.25,2.61,4.4,10.18s10.52,51,10.19,56.71c0,.23,0,.45-.07.67a42.47,42.47,0,0,0-15.89,6.38c-2.37,1.57-4.84,4-3.86,6.89a4.34,4.34,0,0,0,1.19,1.8,9.48,9.48,0,0,0,5.36,2.13c7.1,1.05,14.34.08,21.38-1.27a82.27,82.27,0,0,0,19.47-6.58A4.71,4.71,0,0,0,324.89,216.05Z" style="fill: rgb(224, 224, 224); transform-origin: 289.935px 140.006px;" id="el81fkbargo45" class="animable"></path><path d="M324.89,216.05a3.57,3.57,0,0,1,.29.24,4.13,4.13,0,0,1,.74.86,4.42,4.42,0,0,1,.71,1.73,4.73,4.73,0,0,1-2.32,5c-1.06.58-2.26,1.13-3.57,1.7a87.74,87.74,0,0,1-9.26,3.31c-1.78.52-3.66,1-5.67,1.47s-4.12.79-6.34,1.14a58.19,58.19,0,0,1-14.57.59,25.25,25.25,0,0,1-4-.68,7.09,7.09,0,0,1-3.55-2.16,4.26,4.26,0,0,1-.79-4.15,8.06,8.06,0,0,1,2.73-3.47,41.83,41.83,0,0,1,17.15-7.3l-.16.17a17.75,17.75,0,0,0-.14-3.77c-.13-1.28-.31-2.57-.48-3.87q-.57-3.9-1.25-7.94c-.9-5.37-1.91-10.93-3-16.64s-2.25-11.58-3.53-17.58c-.67-3-1.29-6-2.22-9a42,42,0,0,0-1.62-4.43,20.33,20.33,0,0,0-2.27-4.12l0,0c-2.61-2.18-5.25-4.38-7.81-6.73a64.52,64.52,0,0,1-7.34-7.61,30.79,30.79,0,0,1-5.16-9.47,90.18,90.18,0,0,1-2.69-10.65c-.74-3.61-1.52-7.25-2.07-11s-1-7.46-1.45-11.24c-.78-7.57-1.35-15.27-1.78-23.06q-.36-6.64-.58-13.23v-.15l.13-.08a40.35,40.35,0,0,1,8.31-3.34c2.84-.84,5.71-1.53,8.58-2.09a64,64,0,0,1,8.68-1,39.3,39.3,0,0,1,8.61.44l.15,0,.05.15q4.61,13.45,8.32,26.51a211.75,211.75,0,0,1,5.87,25.67c.6,4.2,1.28,8.33,1.61,12.44a32.85,32.85,0,0,1-.95,12.06,58,58,0,0,1-4.49,10.74c-1.74,3.38-3.63,6.57-5.45,9.7v0a21.86,21.86,0,0,0-.77,5.34,49.38,49.38,0,0,0,.07,5.31c.27,3.48.78,6.86,1.24,10.14.95,6.56,1.95,12.71,2.91,18.44s1.9,11,2.83,15.85q.69,3.63,1.4,6.9c.25,1.08.47,2.14.75,3.16a17.25,17.25,0,0,0,.93,2.9l-.13-.06c7.72-1.49,13.9-1.15,17.8,0a15.11,15.11,0,0,1,4.22,1.84,9.58,9.58,0,0,1,1.25.93l-.32-.23c-.21-.15-.53-.38-1-.65a15.25,15.25,0,0,0-4.21-1.78c-3.89-1.12-10-1.42-17.72.1l-.09,0,0-.08a19.43,19.43,0,0,1-1-2.94c-.28-1-.51-2.08-.76-3.17-.49-2.18-1-4.48-1.43-6.89q-1.41-7.26-2.88-15.86c-1-5.72-2-11.88-2.95-18.44-.47-3.28-1-6.65-1.27-10.17a47.58,47.58,0,0,1-.08-5.35,22.11,22.11,0,0,1,.79-5.47h0v0c1.81-3.13,3.69-6.32,5.42-9.69a57.43,57.43,0,0,0,4.44-10.65,32.46,32.46,0,0,0,.92-11.91c-.33-4.08-1-8.21-1.62-12.41a209.78,209.78,0,0,0-5.88-25.6c-2.47-8.68-5.25-17.53-8.33-26.49l.2.17a38.82,38.82,0,0,0-8.5-.42,62.49,62.49,0,0,0-8.6,1c-2.86.56-5.71,1.25-8.53,2.09a39.51,39.51,0,0,0-8.19,3.29l.12-.23q.21,6.56.58,13.22c.43,7.78,1,15.46,1.78,23,.41,3.78.85,7.53,1.44,11.22s1.32,7.33,2.06,10.94A88.65,88.65,0,0,0,262,123.2a30,30,0,0,0,5.08,9.33,63.36,63.36,0,0,0,7.27,7.55c2.55,2.35,5.19,4.55,7.79,6.73l0,0h0a20.82,20.82,0,0,1,2.34,4.25,47.1,47.1,0,0,1,1.64,4.47c.93,3,1.55,6.08,2.22,9.07,1.27,6,2.43,11.89,3.51,17.6s2.08,11.27,3,16.65c.44,2.7.86,5.34,1.23,8,.17,1.31.36,2.6.48,3.89a18.45,18.45,0,0,1,.13,3.86l0,.14-.14,0a41.58,41.58,0,0,0-17,7.19,7.81,7.81,0,0,0-2.62,3.3,3.93,3.93,0,0,0,.72,3.83,6.78,6.78,0,0,0,3.39,2.05,22.64,22.64,0,0,0,3.89.68,57.33,57.33,0,0,0,14.5-.54c2.21-.34,4.33-.71,6.33-1.12s3.88-.92,5.66-1.44a86.07,86.07,0,0,0,9.25-3.25c1.31-.55,2.51-1.1,3.57-1.67a4.54,4.54,0,0,0,2.07-2.38,4.68,4.68,0,0,0-.44-4.22A6.09,6.09,0,0,0,324.89,216.05Z" style="fill: rgb(38, 50, 56); transform-origin: 289.801px 139.866px;" id="elb10ctf60xed" class="animable"></path><path d="M265.25,81.53A7.13,7.13,0,0,0,262,80.24a2.58,2.58,0,0,0-3,2.35,11.36,11.36,0,0,0,.26,3.23c.31,1.36.94,5.77,1.26,7.13l2.5-.46a73.55,73.55,0,0,0,14.53-4.62A109,109,0,0,1,265.25,81.53Z" style="fill: rgb(0, 255, 136); transform-origin: 268.264px 86.5772px;" id="el444neo1fgr4" class="animable"></path><path d="M291.54,80.45c2.41,8.1,4.95,17.58,6,24.7,2.2,15.08,3.12,18.18-5.22,32.87a8.92,8.92,0,0,1-6.22,4.37h0a8.89,8.89,0,0,1-7.34-2c-12.82-11-13-14.22-16.05-29.15a197.57,197.57,0,0,1-2.76-22.52s4.4-5,17-1.17C286.33,90.4,291.54,80.45,291.54,80.45Z" style="fill: rgb(0, 255, 136); transform-origin: 279.503px 111.489px;" id="eldghdzq6uay" class="animable"></path><path d="M288.22,225.14c-.1-.16,2.81-1.39,5.34-4.17a14.22,14.22,0,0,0,1.56-2.1,10.36,10.36,0,0,0,.88-1.94c.39-1.15.45-1.92.55-1.92a4.54,4.54,0,0,1-.19,2,9,9,0,0,1-.83,2.07,12.77,12.77,0,0,1-1.58,2.21,14.88,14.88,0,0,1-3.86,3A5.45,5.45,0,0,1,288.22,225.14Z" style="fill: rgb(38, 50, 56); transform-origin: 292.402px 220.075px;" id="eld21qi8awvtj" class="animable"></path><path d="M312.38,221.28a5.73,5.73,0,0,1-2-.23,15.24,15.24,0,0,1-4.55-1.84,12.44,12.44,0,0,1-2.14-1.68,9.36,9.36,0,0,1-1.37-1.75,4.36,4.36,0,0,1-.75-1.9c.09,0,.36.7,1.06,1.7a10.56,10.56,0,0,0,1.39,1.61,14.15,14.15,0,0,0,2.08,1.58C309.3,220.73,312.43,221.1,312.38,221.28Z" style="fill: rgb(38, 50, 56); transform-origin: 306.975px 217.586px;" id="elkqzh7b8m7qh" class="animable"></path><g id="eli7jm82cdw9o"><circle cx="268.86" cy="109.28" r="1.52" style="fill: rgb(255, 255, 255); opacity: 0.3; transform-origin: 268.86px 109.28px;" class="animable"></circle></g><g id="elegtue97meph"><path d="M284.08,121.68a1.52,1.52,0,1,1-1.52-1.53A1.52,1.52,0,0,1,284.08,121.68Z" style="fill: rgb(255, 255, 255); opacity: 0.6; transform-origin: 282.56px 121.67px;" class="animable"></path></g><g id="el111ciiisrbs9"><path d="M283.12,104.13a1.52,1.52,0,1,1-1.52-1.52A1.52,1.52,0,0,1,283.12,104.13Z" style="fill: rgb(255, 255, 255); opacity: 0.6; transform-origin: 281.6px 104.13px;" class="animable"></path></g><g id="el11yoz0y7jg5i"><circle cx="266.69" cy="95.48" r="1.52" style="fill: rgb(255, 255, 255); opacity: 0.3; transform-origin: 266.69px 95.48px;" class="animable"></circle></g><g id="el7e5paj2r9il"><path d="M276.9,113.43a1.2,1.2,0,1,1-1.2-1.2A1.2,1.2,0,0,1,276.9,113.43Z" style="fill: rgb(255, 255, 255); opacity: 0.3; transform-origin: 275.7px 113.43px;" class="animable"></path></g><g id="elgu29ybenfqe"><path d="M290,103.35a1.2,1.2,0,0,1-2.4,0,1.2,1.2,0,1,1,2.4,0Z" style="fill: rgb(255, 255, 255); opacity: 0.3; transform-origin: 288.8px 103.345px;" class="animable"></path></g><g id="elx8cav3e5hf"><path d="M272.52,118.59a1.2,1.2,0,1,1-1.2-1.2A1.2,1.2,0,0,1,272.52,118.59Z" style="fill: rgb(255, 255, 255); opacity: 0.6; transform-origin: 271.32px 118.59px;" class="animable"></path></g><g id="elfds5ve081s8"><path d="M290.61,111.14a1.2,1.2,0,1,1-1.2-1.2A1.2,1.2,0,0,1,290.61,111.14Z" style="fill: rgb(255, 255, 255); opacity: 0.3; transform-origin: 289.41px 111.14px;" class="animable"></path></g><g id="elx4ma6251kgk"><path d="M279.05,126.66a1.2,1.2,0,1,1-1.2-1.2A1.2,1.2,0,0,1,279.05,126.66Z" style="fill: rgb(255, 255, 255); opacity: 0.3; transform-origin: 277.85px 126.66px;" class="animable"></path></g><g id="elu7rs37tnsu7"><path d="M283.85,115.58a1,1,0,1,1-1-1A1,1,0,0,1,283.85,115.58Z" style="fill: rgb(255, 255, 255); opacity: 0.3; transform-origin: 282.85px 115.58px;" class="animable"></path></g><g id="elnrm5skamwle"><path d="M287.55,128.06a.95.95,0,1,1-.95-1A.95.95,0,0,1,287.55,128.06Z" style="fill: rgb(255, 255, 255); opacity: 0.3; transform-origin: 286.601px 128.01px;" class="animable"></path></g><g id="elqlrd4y6ul5"><path d="M276,101.21a1,1,0,0,1-1.9,0,.95.95,0,1,1,1.9,0Z" style="fill: rgb(255, 255, 255); opacity: 0.3; transform-origin: 275.05px 101.079px;" class="animable"></path></g><g id="elgs5f6jmp2j5"><path d="M280.88,96.32a.75.75,0,1,1,.47-.95A.75.75,0,0,1,280.88,96.32Z" style="fill: rgb(255, 255, 255); opacity: 0.6; transform-origin: 280.639px 95.6097px;" class="animable"></path></g><g id="elfvmib1cg8a8"><path d="M268,101.33a.75.75,0,1,1,.47-1A.76.76,0,0,1,268,101.33Z" style="fill: rgb(255, 255, 255); opacity: 0.6; transform-origin: 267.774px 100.614px;" class="animable"></path></g><path d="M266.57,126.66a2.3,2.3,0,0,1-.22-.53c-.15-.41-.33-.93-.55-1.56-.48-1.35-1.08-3.34-1.77-5.8a134.78,134.78,0,0,1-3.76-19.67c-.91-7.77-1.35-14.84-1.72-19.94-.18-2.5-.32-4.55-.43-6,0-.67-.07-1.22-.1-1.65a2.39,2.39,0,0,1,0-.58,3.5,3.5,0,0,1,.1.57l.19,1.64c.17,1.42.36,3.49.59,6,.47,5.1,1,12.15,1.88,19.91a153.32,153.32,0,0,0,3.59,19.63c.65,2.47,1.19,4.47,1.61,5.84.19.64.34,1.17.46,1.59A2.47,2.47,0,0,1,266.57,126.66Z" style="fill: rgb(255, 255, 255); transform-origin: 262.286px 98.795px;" id="eln12neq01wc" class="animable"></path><path d="M323.51,221.5s-.12.11-.37.28l-1.13.72a47.55,47.55,0,0,1-4.34,2.31,59.53,59.53,0,0,1-15.53,4.6,71.31,71.31,0,0,1-8.89.82A44.28,44.28,0,0,1,286,230a12.39,12.39,0,0,1-4.69-1.53,7.72,7.72,0,0,1-1.09-.78c-.23-.21-.34-.32-.33-.34s.51.4,1.52.95a13.13,13.13,0,0,0,4.64,1.33,46.85,46.85,0,0,0,7.23.11,77,77,0,0,0,8.83-.86,63.17,63.17,0,0,0,15.46-4.42c1.88-.84,3.37-1.59,4.39-2.14l1.17-.64A1.78,1.78,0,0,1,323.51,221.5Z" style="fill: rgb(255, 255, 255); transform-origin: 301.7px 225.893px;" id="el9twx8t5v7aa" class="animable"></path><g id="elnwos5h7zio"><g style="opacity: 0.6; transform-origin: 296.524px 220.51px;" class="animable"><path d="M300,222.28l-1.83-5.5a14.31,14.31,0,0,1-5.23,7.37l.13.09a60,60,0,0,0,6.14-.67,1.11,1.11,0,0,0,.84-.44A1.15,1.15,0,0,0,300,222.28Z" style="fill: rgb(255, 255, 255); transform-origin: 296.524px 220.51px;" id="elfbqle7dr5a5" class="animable"></path></g></g><g id="elyy0cbew5ja"><path d="M257.25,62.61s1.24,21.16,2.68,28.77c.46,2.42,16.31-11.85,17-16.92s-.79-16.92-1.82-17.11S261.87,57,257.25,62.61Z" style="fill: rgb(255, 255, 255); opacity: 0.6; transform-origin: 267.178px 74.4689px;" class="animable"></path></g><path d="M287,49.11a6.69,6.69,0,0,1-1.12.83,15.09,15.09,0,0,1-1.39.88c-.55.32-1.17.71-1.9,1a38.19,38.19,0,0,1-5.2,2.23,44.41,44.41,0,0,1-6.73,1.68,42.55,42.55,0,0,1-6.91.52,38.94,38.94,0,0,1-5.64-.46c-.8-.1-1.51-.28-2.14-.4s-1.16-.27-1.59-.4a9.14,9.14,0,0,1-1.33-.43c0-.1,1.94.45,5.11.86a42.92,42.92,0,0,0,5.59.35,43,43,0,0,0,13.49-2.18,42.13,42.13,0,0,0,5.19-2.1C285.28,50.15,286.93,49,287,49.11Z" style="fill: rgb(38, 50, 56); transform-origin: 270.025px 52.6768px;" id="el1phh6zvi3ur" class="animable"></path><path d="M284.36,52.89a4.62,4.62,0,0,1-1,.6c-.64.35-1.59.81-2.8,1.32a40.46,40.46,0,0,1-9.87,2.69,40.94,40.94,0,0,1-10.22.11,29.45,29.45,0,0,1-3.06-.51,4.06,4.06,0,0,1-1.09-.31c0-.09,1.6.23,4.19.45A46,46,0,0,0,270.65,57a46.19,46.19,0,0,0,9.8-2.51C282.88,53.55,284.32,52.81,284.36,52.89Z" style="fill: rgb(255, 255, 255); transform-origin: 270.34px 55.3808px;" id="eld37nx1569oj" class="animable"></path><path d="M240.78,245.1a14,14,0,0,0-2.73-2.94c-5.44-4.38-13.93-5.86-19.11-6.36l-.06-.39c-.67-5.74,4.94-50.28,6.67-58.08s3.87-10.57,3.87-10.57c19.25-17.9,19-21,22-41.56C254.2,105.92,252.55,71,252.55,71c-6.29-3.22-16-4.35-16-4.35s-11.94-1.38-18.8.32c0,0-9,33.66-10.68,53.07-1.81,20.66-2.74,23.66,11.89,45.49,0,0,1.44,3.19,1.35,11.18s-4.49,52.67-6.45,58.1c-.09.23-.17.43-.26.63a43.13,43.13,0,0,0-17.31,1.63c-2.75.84-5.85,2.47-5.74,5.58a4.48,4.48,0,0,0,.64,2.1,9.66,9.66,0,0,0,4.6,3.62c6.6,3.07,13.93,4.21,21.17,4.93a83.22,83.22,0,0,0,20.84-.78A4.78,4.78,0,0,0,240.78,245.1Z" style="fill: rgb(224, 224, 224); transform-origin: 221.792px 159.873px;" id="elbacmrxforrg" class="animable"></path><path d="M240.78,245.1s.08.1.22.32a4.26,4.26,0,0,1,.47,1.05,4.53,4.53,0,0,1,.19,1.89,4.82,4.82,0,0,1-3.71,4.22c-1.2.26-2.52.45-4,.62a87.63,87.63,0,0,1-10,.55c-1.87,0-3.86-.05-5.93-.21s-4.25-.41-6.51-.72a58.42,58.42,0,0,1-14.34-3.63,24.69,24.69,0,0,1-3.65-1.8,7.2,7.2,0,0,1-2.83-3.12,4.32,4.32,0,0,1,.43-4.26,8.15,8.15,0,0,1,3.65-2.59,42.32,42.32,0,0,1,18.79-2.15l-.2.12a19,19,0,0,0,1-3.72c.24-1.28.43-2.59.64-3.9q.57-4,1.07-8.08,1-8.24,1.89-17.05c.59-5.87,1.15-11.92,1.64-18.13.21-3.1.49-6.24.44-9.42a45.08,45.08,0,0,0-.3-4.77,20.79,20.79,0,0,0-1-4.67l0,0c-1.9-2.88-3.84-5.78-5.65-8.81a65.4,65.4,0,0,1-4.94-9.52,31.1,31.1,0,0,1-2.29-10.7,88.56,88.56,0,0,1,.46-11.14c.32-3.72.61-7.49,1.14-11.26s1.15-7.56,1.84-11.36c1.42-7.59,3.09-15.24,4.92-22.94,1.05-4.39,2.12-8.74,3.25-13l0-.15.15,0a40.76,40.76,0,0,1,9.05-.86c3,0,6,.16,8.95.44a64.67,64.67,0,0,1,8.72,1.57,39.83,39.83,0,0,1,8.25,2.91l.13.06V71q.6,14.43.45,28.2a215.37,215.37,0,0,1-1.7,26.66c-.63,4.27-1.16,8.48-2,12.57a33.54,33.54,0,0,1-4.41,11.46,58.24,58.24,0,0,1-7.46,9.15c-2.67,2.78-5.43,5.34-8.1,7.86l0,0a22.41,22.41,0,0,0-2.29,5,49.56,49.56,0,0,0-1.47,5.18c-.74,3.47-1.21,6.91-1.71,10.23-1,6.66-1.78,12.93-2.5,18.78s-1.32,11.27-1.81,16.24c-.25,2.48-.46,4.86-.63,7.11-.07,1.13-.16,2.22-.18,3.29a18.59,18.59,0,0,0,.06,3.09l-.1-.09c7.94.77,13.85,2.89,17.31,5.14a15.25,15.25,0,0,1,3.57,3,10.19,10.19,0,0,1,.95,1.26l-.24-.31c-.16-.21-.41-.52-.75-.91a15.48,15.48,0,0,0-3.59-2.95c-3.46-2.21-9.36-4.28-17.27-5h-.09v-.08a19.21,19.21,0,0,1-.08-3.14c0-1.07.11-2.17.17-3.3q.24-3.39.6-7.12c.48-5,1.07-10.4,1.77-16.25s1.5-12.13,2.45-18.79c.49-3.33,1-6.76,1.7-10.26a49.73,49.73,0,0,1,1.47-5.23,22.28,22.28,0,0,1,2.35-5.09h0l0,0c2.67-2.52,5.42-5.08,8.07-7.86a58,58,0,0,0,7.39-9.08,33.1,33.1,0,0,0,4.34-11.32c.85-4.06,1.38-8.28,2-12.55a214.13,214.13,0,0,0,1.66-26.6c.09-9.15-.05-18.56-.46-28.16l.14.21a39,39,0,0,0-8.15-2.86,62.51,62.51,0,0,0-8.64-1.55c-2.94-.28-5.92-.44-8.9-.44a40.5,40.5,0,0,0-8.92.84l.19-.18c-1.13,4.29-2.21,8.64-3.25,13-1.83,7.69-3.5,15.34-4.92,22.92-.69,3.79-1.35,7.56-1.84,11.32s-.82,7.52-1.14,11.25a89.7,89.7,0,0,0-.47,11.07,30.58,30.58,0,0,0,2.25,10.53,65,65,0,0,0,4.9,9.45c1.81,3,3.74,5.93,5.64,8.8v0h0a21.07,21.07,0,0,1,1.06,4.81,46,46,0,0,1,.3,4.83c0,3.2-.24,6.35-.46,9.46-.49,6.21-1.06,12.26-1.66,18.13s-1.22,11.57-1.91,17.06q-.51,4.13-1.09,8.09c-.21,1.32-.4,2.63-.65,3.92a18.23,18.23,0,0,1-1,3.79l-.06.13h-.14A42.13,42.13,0,0,0,195,237.75a7.81,7.81,0,0,0-3.5,2.46,4,4,0,0,0-.4,3.93,6.89,6.89,0,0,0,2.7,3,24.45,24.45,0,0,0,3.59,1.78,58.05,58.05,0,0,0,14.26,3.65c2.25.32,4.42.57,6.49.75s4,.22,5.91.23A88.41,88.41,0,0,0,234,253c1.43-.17,2.76-.36,3.95-.6a4.65,4.65,0,0,0,2.7-1.72,4.74,4.74,0,0,0,.79-4.23A6.45,6.45,0,0,0,240.78,245.1Z" style="fill: rgb(38, 50, 56); transform-origin: 221.759px 159.827px;" id="el48l496zc2hd" class="animable"></path><path d="M247.59,102.45c0,8.56-.22,18.52-1.26,25.75-2.18,15.31-2.18,18.58-14.5,30.49a9,9,0,0,1-7.31,2.48h0a9,9,0,0,1-6.57-4.06c-9.33-14.38-8.59-17.57-7.27-33a202.69,202.69,0,0,1,3.77-22.71s5.72-3.61,16.88,3.74C239.66,110.64,247.59,102.45,247.59,102.45Z" style="fill: rgb(0, 255, 136); transform-origin: 228.746px 130.872px;" id="elm88da9v1t8q" class="animable"></path><path d="M202.88,242.33c0-.18,3.13-.55,6.39-2.52a14.14,14.14,0,0,0,2.12-1.6,10.53,10.53,0,0,0,1.42-1.64c.71-1,1-1.74,1.08-1.71a4.55,4.55,0,0,1-.77,1.92,10.07,10.07,0,0,1-1.39,1.77,12.86,12.86,0,0,1-2.18,1.7,15.43,15.43,0,0,1-4.62,1.85A5.94,5.94,0,0,1,202.88,242.33Z" style="fill: rgb(38, 50, 56); transform-origin: 208.385px 238.6px;" id="elxtceij5xet8" class="animable"></path><path d="M227.51,245.5a5.71,5.71,0,0,1-1.9-.81,15.34,15.34,0,0,1-3.9-3.09,12.29,12.29,0,0,1-1.6-2.25,9.19,9.19,0,0,1-.83-2.1,4.44,4.44,0,0,1-.19-2.05c.09,0,.15.77.54,2a11.38,11.38,0,0,0,.9,2,14.38,14.38,0,0,0,1.57,2.14C224.66,244.08,227.61,245.34,227.51,245.5Z" style="fill: rgb(38, 50, 56); transform-origin: 223.279px 240.35px;" id="ell5row606p17" class="animable"></path><g id="elapxyks7fkz"><path d="M218.73,124.44a1.54,1.54,0,1,1-1-1.92A1.54,1.54,0,0,1,218.73,124.44Z" style="fill: rgb(255, 255, 255); opacity: 0.3; transform-origin: 217.258px 123.986px;" class="animable"></path></g><g id="el986khd2gd6o"><path d="M228.51,140.43a1.54,1.54,0,1,1-1-1.91A1.54,1.54,0,0,1,228.51,140.43Z" style="fill: rgb(255, 255, 255); opacity: 0.6; transform-origin: 227.036px 139.985px;" class="animable"></path></g><g id="el0co8qj0ubxp7"><path d="M232.61,123.08a1.54,1.54,0,1,1-1.05-1.92A1.54,1.54,0,0,1,232.61,123.08Z" style="fill: rgb(255, 255, 255); opacity: 0.6; transform-origin: 231.134px 122.64px;" class="animable"></path></g><g id="el11wi99fmsppq"><path d="M220.57,110.38a1.54,1.54,0,1,1-1-1.91A1.55,1.55,0,0,1,220.57,110.38Z" style="fill: rgb(255, 255, 255); opacity: 0.3; transform-origin: 219.094px 109.935px;" class="animable"></path></g><g id="el3y0qeyhbu6v"><path d="M223.89,130.34a1.22,1.22,0,1,1-.83-1.51A1.22,1.22,0,0,1,223.89,130.34Z" style="fill: rgb(255, 255, 255); opacity: 0.3; transform-origin: 222.718px 130.001px;" class="animable"></path></g><g id="elydl5eizbsml"><path d="M239.5,124.29a1.22,1.22,0,1,1-.83-1.51A1.22,1.22,0,0,1,239.5,124.29Z" style="fill: rgb(255, 255, 255); opacity: 0.3; transform-origin: 238.328px 123.951px;" class="animable"></path></g><g id="elriull5qaiv"><path d="M218.14,134.12a1.22,1.22,0,0,1-1.51.82,1.22,1.22,0,1,1,1.51-.82Z" style="fill: rgb(255, 255, 255); opacity: 0.6; transform-origin: 216.972px 133.769px;" class="animable"></path></g><g id="el6u82pvo0cs4"><path d="M237.88,132.05a1.22,1.22,0,1,1-2.33-.69,1.22,1.22,0,1,1,2.33.69Z" style="fill: rgb(255, 255, 255); opacity: 0.3; transform-origin: 236.715px 131.705px;" class="animable"></path></g><g id="el4j078gdfzu"><path d="M222.18,143.84a1.22,1.22,0,1,1-.82-1.51A1.21,1.21,0,0,1,222.18,143.84Z" style="fill: rgb(255, 255, 255); opacity: 0.3; transform-origin: 221.01px 143.498px;" class="animable"></path></g><g id="ele5qssr2081o"><path d="M230,134.44a1,1,0,1,1-.66-1.2A1,1,0,0,1,230,134.44Z" style="fill: rgb(255, 255, 255); opacity: 0.3; transform-origin: 229.031px 134.191px;" class="animable"></path></g><g id="elzl7sj9z0yem"><path d="M230.06,147.64a1,1,0,1,1-.65-1.2A1,1,0,0,1,230.06,147.64Z" style="fill: rgb(255, 255, 255); opacity: 0.3; transform-origin: 229.092px 147.388px;" class="animable"></path></g><g id="eljjzafxjgrs"><path d="M226.54,118.21a1,1,0,1,1-.65-1.2A1,1,0,0,1,226.54,118.21Z" style="fill: rgb(255, 255, 255); opacity: 0.3; transform-origin: 225.572px 117.958px;" class="animable"></path></g><g id="el1vm54pziv5b"><path d="M232.66,114.83a.76.76,0,1,1,.73-.79A.76.76,0,0,1,232.66,114.83Z" style="fill: rgb(255, 255, 255); opacity: 0.6; transform-origin: 232.631px 114.071px;" class="animable"></path></g><g id="elouc6x8gphd"><path d="M218.67,116a.75.75,0,0,1-.79-.72.76.76,0,1,1,.79.72Z" style="fill: rgb(255, 255, 255); opacity: 0.6; transform-origin: 218.639px 115.241px;" class="animable"></path></g><g id="eli3in6ubllq"><path d="M219.32,75.25s-4.85,21-5.63,28.77c-.25,2.49,19.27-6.86,21.37-11.61s4.08-16.69,3.13-17.17S225.44,71.09,219.32,75.25Z" style="fill: rgb(255, 255, 255); opacity: 0.6; transform-origin: 226.061px 88.8606px;" class="animable"></path></g><path d="M246.3,77.51l0-.22-.05,0A1.93,1.93,0,0,0,246.3,77.51Z" style="fill: rgb(0, 255, 136); transform-origin: 246.275px 77.4px;" id="elrgjn6bb08j" class="animable"></path><path d="M247,69a6.88,6.88,0,0,0-.93-3,3.75,3.75,0,0,0-2.54-1.79c-2-.31-3.84,1.55-4.22,3.54-.4,2.14.42,4.31,1.26,6.29a54.06,54.06,0,0,0,2.51,5.13,5.44,5.44,0,0,0,1.67,2C245.63,77.15,247.36,73.17,247,69Z" style="fill: rgb(0, 255, 136); transform-origin: 243.127px 72.673px;" id="eljbft3nh3xek" class="animable"></path><path d="M252.62,71.51a8.47,8.47,0,0,1-1.34.48,15.8,15.8,0,0,1-1.6.46c-.63.15-1.34.35-2.15.48a39.94,39.94,0,0,1-5.7.67,40.94,40.94,0,0,1-13.91-1.76,40.66,40.66,0,0,1-5.35-2.07c-.75-.33-1.39-.7-2-1s-1-.59-1.43-.84a7.78,7.78,0,0,1-1.17-.8,6.4,6.4,0,0,1,1.27.62c.39.22.88.49,1.47.76s1.23.62,2,.92a44.26,44.26,0,0,0,5.34,1.95,43.63,43.63,0,0,0,13.75,1.74,46.41,46.41,0,0,0,5.66-.55c.8-.11,1.52-.28,2.15-.41s1.17-.25,1.61-.36A6.77,6.77,0,0,1,252.62,71.51Z" style="fill: rgb(38, 50, 56); transform-origin: 235.295px 70.3869px;" id="el5023vndlwaf" class="animable"></path><path d="M210,140.26a2.45,2.45,0,0,1-.07-.58c0-.44-.05-1-.08-1.67-.08-1.45-.1-3.56-.06-6.16a138.06,138.06,0,0,1,2-20.22c1.34-7.83,2.94-14.83,4-19.91.54-2.48,1-4.52,1.32-6,.15-.67.27-1.21.37-1.63a2.82,2.82,0,0,1,.17-.57,2.83,2.83,0,0,1-.06.59c-.08.43-.17,1-.28,1.65-.26,1.43-.66,3.49-1.16,6-1,5.1-2.55,12.11-3.89,19.92a156.24,156.24,0,0,0-2.13,20.14c-.08,2.59-.12,4.69-.1,6.15,0,.68,0,1.23,0,1.67A3.29,3.29,0,0,1,210,140.26Z" style="fill: rgb(255, 255, 255); transform-origin: 213.71px 111.89px;" id="elcf9cymyya7f" class="animable"></path><path d="M248.5,73.56a4.57,4.57,0,0,1-1.11.3,29.52,29.52,0,0,1-3.11.48,40.88,40.88,0,0,1-10.37-.21,41.26,41.26,0,0,1-10-2.82,31,31,0,0,1-2.83-1.37,5.7,5.7,0,0,1-1-.61c0-.09,1.5.68,3.95,1.64a46,46,0,0,0,20.19,3C246.88,73.78,248.49,73.47,248.5,73.56Z" style="fill: rgb(255, 255, 255); transform-origin: 234.29px 71.9482px;" id="eld3d3fp7tnq8" class="animable"></path><path d="M238.27,248.91a2,2,0,0,1-.44.16l-1.31.38c-1.13.3-2.8.67-4.88,1a60.36,60.36,0,0,1-16.43,0,72,72,0,0,1-8.9-1.75,44.73,44.73,0,0,1-7-2.31,12.46,12.46,0,0,1-4.12-2.82,7.92,7.92,0,0,1-.84-1.08c-.16-.26-.24-.41-.22-.42s.38.54,1.21,1.36a13.3,13.3,0,0,0,4.12,2.63,49.4,49.4,0,0,0,7,2.18,78.55,78.55,0,0,0,8.84,1.69,64.29,64.29,0,0,0,16.32.13c2.07-.28,3.74-.59,4.89-.83l1.32-.28A1.39,1.39,0,0,1,238.27,248.91Z" style="fill: rgb(255, 255, 255); transform-origin: 216.198px 246.541px;" id="elw4hu23bs0m" class="animable"></path><g id="elu7ncqfm82mq"><g style="opacity: 0.6; transform-origin: 211.427px 240.502px;" class="animable"><path d="M215.13,242.91l-.21-5.88a14.44,14.44,0,0,1-7.21,5.67l.11.13a58.63,58.63,0,0,0,6.17,1.11,1.1,1.1,0,0,0,.94-.19A1.14,1.14,0,0,0,215.13,242.91Z" style="fill: rgb(255, 255, 255); transform-origin: 211.427px 240.502px;" id="elt4tx3r4cqw" class="animable"></path></g></g><path d="M247.71,94a3.69,3.69,0,0,0-2.82-.52,4.28,4.28,0,0,0-2.69,1.24c-1,1.2-.88,3-.55,4.57s.74,3.26,0,4.68a4.82,4.82,0,0,1-1.89,1.83,9.09,9.09,0,0,1-4.25,1.25l11.71.11a46.36,46.36,0,0,1,1.11-8.13,10.36,10.36,0,0,0,.4-2.64A3.12,3.12,0,0,0,247.71,94Z" style="fill: rgb(0, 255, 136); transform-origin: 242.121px 100.277px;" id="ellnnor1p1jtl" class="animable"></path></g><g id="freepik--speech-bubble-2--inject-14" class="animable" style="transform-origin: 404.325px 171.912px;"><path d="M392.33,198.63c10.72,4.72,24.32,3.22,35.16-7.74a21.73,21.73,0,0,0,5.57-9.9c8.2-32.25-28.21-53-51.73-29.42a21.73,21.73,0,0,0-5.69,10c-3.53,13.73,1,25.37,9.23,32.41l0,8.56Z" style="fill: rgb(255, 255, 255); transform-origin: 404.335px 171.985px;" id="ely8lf1rh4gf" class="animable"></path><path d="M392.33,198.63s-.16.1-.49.27l-1.42.76-5.48,2.89-.1,0v-.1c0-2.35,0-5.24-.06-8.56l0,.07a29.88,29.88,0,0,1-8.65-12.5c-.25-.69-.48-1.38-.68-2.1-.25-1-.43-2-.69-3l-.18-1.5a18.47,18.47,0,0,1-.21-2.37,28.59,28.59,0,0,1,1.24-9.88,30.49,30.49,0,0,1,4.87-9.54,30,30,0,0,1,32.06-10.65,29.52,29.52,0,0,1,16,11.12l.69,1,.35.49a9.29,9.29,0,0,0,.53.85l.62,1a45.66,45.66,0,0,1,2.08,5.06,27,27,0,0,1,1.5,8.87,32.86,32.86,0,0,1-.21,4.34c-.15,1-.36,1.89-.5,2.83-.13.44-.25.88-.38,1.31s-.3,1.05-.44,1.57l0,0-1,2.63a.14.14,0,0,1,0,.06L431,185a15.22,15.22,0,0,1-1,1.73,29.61,29.61,0,0,1-10.15,10.19,24.88,24.88,0,0,1-2.87,1.52,21.91,21.91,0,0,1-2.86,1.15,28.55,28.55,0,0,1-5.47,1.36,29.69,29.69,0,0,1-14.52-1.53c-.61-.23-1.06-.42-1.37-.56l-.46-.21.47.18c.31.12.77.31,1.39.52a29.71,29.71,0,0,0,14.46,1.42,28.07,28.07,0,0,0,5.43-1.37,22.61,22.61,0,0,0,2.84-1.16,25.17,25.17,0,0,0,2.84-1.51,29.44,29.44,0,0,0,10-10.14,14.87,14.87,0,0,0,.94-1.71l.7-1.37a.14.14,0,0,0,0-.06l1-2.61s0,0,0,0c.14-.52.29-1,.44-1.56l.37-1.3c.14-.93.34-1.86.49-2.81a32.18,32.18,0,0,0,.2-4.3,31.47,31.47,0,0,0-.37-4.4,34.18,34.18,0,0,0-1.12-4.37,45.14,45.14,0,0,0-2.07-5l-.59-.92a7.73,7.73,0,0,1-.54-.86l-.35-.48-.68-1a29.22,29.22,0,0,0-15.8-11,29.44,29.44,0,0,0-12.21-.87,29.91,29.91,0,0,0-11.13,3.9,29.54,29.54,0,0,0-8.39,7.49,29.92,29.92,0,0,0-4.84,9.44,28.52,28.52,0,0,0-1.25,9.79,20.31,20.31,0,0,0,.2,2.35l.18,1.48c.26,1,.43,2,.68,3,.2.71.42,1.41.66,2.09a29.7,29.7,0,0,0,8.55,12.44l0,0v0c0,3.32,0,6.21,0,8.56l-.09-.06,5.53-2.85,1.43-.72Z" style="fill: rgb(38, 50, 56); transform-origin: 404.325px 171.912px;" id="eld1x4jcpc9s" class="animable"></path><path d="M400.35,157.43l1.09,17.21a2.8,2.8,0,0,0,2.62,2.61h0a2.8,2.8,0,0,0,2.94-2.48l1.91-17.3A2.19,2.19,0,0,0,406.7,155l-4.2.06A2.19,2.19,0,0,0,400.35,157.43Z" style="fill: rgb(0, 255, 136); transform-origin: 404.635px 166.127px;" id="elmttwaxtsyaq" class="animable"></path><path d="M407.76,186.93a4.2,4.2,0,1,1-2.67-5.31A4.21,4.21,0,0,1,407.76,186.93Z" style="fill: rgb(0, 255, 136); transform-origin: 403.772px 185.608px;" id="elxt0552kzxm" class="animable"></path></g><g id="freepik--speech-bubble-1--inject-14" class="animable" style="transform-origin: 77.6821px 127.57px;"><path d="M94.34,151.48c10.1-6.52,16.51-19,13.23-34.51a22.23,22.23,0,0,0-5.33-10.37c-23-25.25-61.33-5.75-54.45,27.71a22.45,22.45,0,0,0,5.32,10.51c9.77,10.78,22.32,13.45,33,10.4L93.46,160Z" style="fill: rgb(255, 255, 255); transform-origin: 77.7051px 127.549px;" id="el6k89efa4xvg" class="animable"></path><path d="M94.34,151.48s0,.2,0,.57-.09.93-.16,1.65c-.14,1.45-.35,3.58-.62,6.33v.11l-.09-.06-7.36-4.78h.07a30.62,30.62,0,0,1-15.6.35c-.73-.18-1.46-.37-2.18-.61-1-.33-1.95-.75-3-1.09l-1.39-.7a18.4,18.4,0,0,1-2.14-1.15,29.34,29.34,0,0,1-7.77-6.66,30.74,30.74,0,0,1-4.16-33,30.64,30.64,0,0,1,7.73-10.08A30.13,30.13,0,0,1,76.2,95L77.43,95l.62,0c.34,0,.68.06,1,0h1.17a46.85,46.85,0,0,1,5.52,1.08,36.14,36.14,0,0,1,4.43,1.53,36.12,36.12,0,0,1,4,2.2,34,34,0,0,1,3.6,2.64c.73.66,1.42,1.37,2.14,2l.91,1.06,1.09,1.27,0,0,1.67,2.37a.21.21,0,0,1,0,.06l.79,1.38a17,17,0,0,1,.94,1.79,30.51,30.51,0,0,1,3,14.46,27.07,27.07,0,0,1-.32,3.32,23,23,0,0,1-.64,3.1,28.46,28.46,0,0,1-1.92,5.46,30.63,30.63,0,0,1-5.16,7.67,29.52,29.52,0,0,1-4.36,3.9c-.54.4-1,.68-1.25.86s-.44.28-.44.28l.42-.3c.28-.2.7-.49,1.23-.89a32.13,32.13,0,0,0,4.31-3.93,30.69,30.69,0,0,0,5.08-7.67,28.38,28.38,0,0,0,1.89-5.43,23,23,0,0,0,.62-3.08,25.14,25.14,0,0,0,.3-3.29,30.14,30.14,0,0,0-3-14.34,14.25,14.25,0,0,0-.93-1.77l-.79-1.37,0-.06L101.77,107l0,0-1.09-1.26-.9-1.06c-.72-.64-1.4-1.34-2.13-2A32.38,32.38,0,0,0,94.05,100a33,33,0,0,0-4-2.16,33.75,33.75,0,0,0-4.38-1.51,46.57,46.57,0,0,0-5.48-1.07l-1.13,0a7.25,7.25,0,0,1-1,0l-.6,0-1.22,0a30,30,0,0,0-18.35,7.32,30.27,30.27,0,0,0-7.64,10,30.68,30.68,0,0,0-2.95,11.74A30.36,30.36,0,0,0,49,135.79a30.91,30.91,0,0,0,5.36,9.48A29.34,29.34,0,0,0,62,151.88,20.77,20.77,0,0,0,64.12,153l1.37.69c1,.34,2,.76,2.93,1.1.72.23,1.45.43,2.16.61a30.51,30.51,0,0,0,15.5-.3h0l0,0L93.49,160l-.1.05c.3-2.76.53-4.89.69-6.35.08-.72.14-1.26.19-1.64S94.34,151.48,94.34,151.48Z" style="fill: rgb(38, 50, 56); transform-origin: 77.6321px 127.57px;" id="elck0tn252nsl" class="animable"></path><path d="M94.85,120.1c-1.09-3.21-4-6.49-7.67-7.29a8.18,8.18,0,0,0-9,4.19,8,8,0,0,0-2.43-2.63,8.3,8.3,0,0,0-6.39-1.27c-3.64.79-6.58,4.07-7.68,7.27h0A12.94,12.94,0,0,0,62.94,130a18.22,18.22,0,0,0,6.25,5.87c4.08,2.47,9.46,5.56,9.46,5.56s4.55-3.4,8.64-5.86a18.22,18.22,0,0,0,6.27-5.85A13,13,0,0,0,94.85,120.1Z" style="fill: rgb(0, 255, 136); transform-origin: 78.2574px 127.025px;" id="ela926bcousvm" class="animable"></path></g><g id="freepik--character-2--inject-14" class="animable animator-active" style="transform-origin: 334.455px 341.458px;"><path d="M247.68,397.27,237,386.16l14.15-14.41s12,9.05,12.24,9.33S247.68,397.27,247.68,397.27Z" style="fill: rgb(255, 191, 157); transform-origin: 250.196px 384.51px;" id="elx2g3wmxlied" class="animable"></path><path d="M231.3,355.23s-5-3.67-7.54-4.48-5.66-1.62-5.66-1.62a39.94,39.94,0,0,1-5-4.43,2.52,2.52,0,0,0-3.69-.55c-1.12.69-1,3,2,6.38l2.68,2.71a8.32,8.32,0,0,0-.8,4.63,6.77,6.77,0,0,0,1,2.5s-2.86,1.37-2.75,4a3.4,3.4,0,0,0,2.33,3.26s-1.81,3-1.23,5.37,6.91,6.94,6.91,6.94,13.94,6.84,18.76,7.22l3.51-1.06,10.76-13.43Z" style="fill: rgb(255, 191, 157); transform-origin: 230.669px 365.37px;" id="elg8ottjh3lyd" class="animable"></path><path d="M241.94,389.36a6.63,6.63,0,0,0-1.66-1c-3.12-1.28-7.26-.8-9.72-.32a1.3,1.3,0,0,1-.08-.17c-1.1-2.57-4.62-24-4.89-27.81s.34-5.42.34-5.42c6.45-10.93,5.92-12.35,4.47-22.26-1.36-9.31-6.91-25.24-6.91-25.24a27.44,27.44,0,0,0-8,.18s-5.72,1-8.66,2.73c0,0,.47,16.81,2.34,26,2,9.82,2,11.33,11.76,19.43,0,0,1.1,1.28,2.15,5s5.16,25,5,27.79c0,.12,0,.22,0,.33a20.82,20.82,0,0,0-7.79,3.13c-1.16.76-2.37,1.95-1.89,3.37a2.18,2.18,0,0,0,.58.89,4.71,4.71,0,0,0,2.63,1,31.37,31.37,0,0,0,10.48-.63,40,40,0,0,0,9.54-3.22A2.3,2.3,0,0,0,241.94,389.36Z" style="fill: rgb(224, 224, 224); transform-origin: 224.809px 352.051px;" id="elkxh3saf3oe8" class="animable"></path><path d="M241.94,389.36a1.62,1.62,0,0,1,.52.53,2.33,2.33,0,0,1,.26,2.12,2.31,2.31,0,0,1-1,1.23c-.52.29-1.11.56-1.75.84A41.46,41.46,0,0,1,229.5,397a27.87,27.87,0,0,1-7.16.3,11.36,11.36,0,0,1-2-.33,3.68,3.68,0,0,1-1.79-1.08,2.19,2.19,0,0,1-.4-2.12,4,4,0,0,1,1.36-1.74,20.65,20.65,0,0,1,8.45-3.61l-.17.18a19.26,19.26,0,0,0-.3-3.73c-.19-1.27-.4-2.56-.62-3.88-.44-2.63-.94-5.35-1.47-8.15s-1.11-5.67-1.74-8.61c-.33-1.47-.63-3-1.08-4.41a15.18,15.18,0,0,0-1.89-4.15l0,0c-1.28-1.07-2.57-2.15-3.83-3.31a29.77,29.77,0,0,1-3.61-3.74,15,15,0,0,1-2.55-4.67,42.77,42.77,0,0,1-1.33-5.24c-1.59-7.08-2.15-14.58-2.6-22.2-.12-2.17-.22-4.34-.28-6.49v-.15l.14-.08a20.33,20.33,0,0,1,4.1-1.65c1.39-.41,2.8-.75,4.21-1a32.79,32.79,0,0,1,4.27-.47,19.58,19.58,0,0,1,4.26.22l.14,0,0,.14c1.51,4.41,2.86,8.75,4.08,13a103.23,103.23,0,0,1,2.87,12.59c.29,2.06.63,4.09.79,6.11a16.25,16.25,0,0,1-.48,6,28.51,28.51,0,0,1-2.21,5.28c-.86,1.65-1.78,3.22-2.68,4.75l0,0a16.14,16.14,0,0,0-.34,5.18c.12,1.69.38,3.35.6,5,.46,3.21.94,6.23,1.41,9s.93,5.41,1.38,7.77c.22,1.19.45,2.32.68,3.38a17.89,17.89,0,0,0,.81,3l-.13-.06a19.29,19.29,0,0,1,8.75,0,7.25,7.25,0,0,1,2.06.92,3.8,3.8,0,0,1,.6.47,7.42,7.42,0,0,0-2.7-1.27,19.35,19.35,0,0,0-8.66.07l-.09,0,0-.08a19.87,19.87,0,0,1-.85-3c-.24-1.07-.47-2.2-.7-3.38-.47-2.37-.94-5-1.43-7.77s-1-5.82-1.46-9-1.16-6.67-.27-10.33h0v0c.89-1.53,1.81-3.09,2.65-4.74a27.77,27.77,0,0,0,2.16-5.2c1.11-3.71.22-7.77-.35-11.87a101.43,101.43,0,0,0-2.88-12.53c-1.21-4.25-2.58-8.58-4.08-13l.19.17a18.92,18.92,0,0,0-4.13-.21,31.38,31.38,0,0,0-4.2.47c-1.39.27-2.79.61-4.17,1a20,20,0,0,0-4,1.6l.13-.23c.06,2.14.16,4.3.28,6.47.45,7.62,1,15.08,2.58,22.13a45.44,45.44,0,0,0,1.3,5.17,14.56,14.56,0,0,0,2.47,4.53,31,31,0,0,0,3.55,3.69c1.25,1.15,2.54,2.23,3.81,3.3h0c1.85,2.74,2.4,5.86,3.06,8.78s1.19,5.82,1.72,8.63,1,5.52,1.45,8.16q.33,2,.6,3.9a19.56,19.56,0,0,1,.3,3.82v.14l-.15,0a20.21,20.21,0,0,0-8.3,3.5,3.77,3.77,0,0,0-1.25,1.57,1.83,1.83,0,0,0,.33,1.8c.86,1,2.28,1.16,3.51,1.31a28.38,28.38,0,0,0,7.09-.26,40.5,40.5,0,0,0,5.87-1.23,45.76,45.76,0,0,0,4.53-1.58c.64-.27,1.23-.54,1.75-.81a2.2,2.2,0,0,0,1-1.15,2.3,2.3,0,0,0-.19-2.05A3.37,3.37,0,0,0,241.94,389.36Z" style="fill: rgb(38, 50, 56); transform-origin: 224.677px 352.022px;" id="elluprv1uhpna" class="animable"></path><path d="M225.6,322.91a94.38,94.38,0,0,1,2.94,12.1c1.07,7.4,1.52,8.91-2.56,16.11a4.36,4.36,0,0,1-3,2.14h0a4.35,4.35,0,0,1-3.6-1c-6.28-5.39-6.37-7-7.86-14.29a97.2,97.2,0,0,1-1.36-11s2.16-2.45,8.33-.57C223.05,327.79,225.6,322.91,225.6,322.91Z" style="fill: rgb(0, 255, 136); transform-origin: 219.719px 338.117px;" id="el6xpt2fb2dvp" class="animable"></path><path d="M220.24,357a1.73,1.73,0,0,0-.18-1.27c.76-1,2.78-3.2,3.05-4.41a2.86,2.86,0,0,0-1.27-3.19,3.34,3.34,0,0,0-2.8.23c-1.55.71-4.22,3.63-5,5.13" style="fill: rgb(255, 191, 157); transform-origin: 218.625px 352.463px;" id="elcoq4724ek9b" class="animable"></path><path d="M214,353.52a7.81,7.81,0,0,1,1.68-2.52,16.6,16.6,0,0,1,2.39-2.29,5.23,5.23,0,0,1,1.8-.89,3,3,0,0,1,2.2.16,2.91,2.91,0,0,1,1.37,2.59,3,3,0,0,1-.28,1.36,6.88,6.88,0,0,1-.64,1.07c-.91,1.27-1.8,2.19-2.35,2.84l0-.14c.37.85.09,1.36.06,1.33a2.36,2.36,0,0,0-.29-1.21l0-.07,0-.07c.5-.7,1.33-1.67,2.18-2.93a3.54,3.54,0,0,0,.79-2.17,2.45,2.45,0,0,0-1.12-2.14,2.54,2.54,0,0,0-1.82-.13,4.77,4.77,0,0,0-1.65.79,17.39,17.39,0,0,0-2.39,2.15C214.66,352.58,214.05,353.55,214,353.52Z" style="fill: rgb(255, 154, 108); transform-origin: 218.721px 352.357px;" id="eljkuav1pugr" class="animable"></path><path d="M220.28,364.16a12.84,12.84,0,0,0,3-1.87,4.45,4.45,0,0,0,1.55-3.07,2.72,2.72,0,0,0-1.85-2.7,4.22,4.22,0,0,0-2.73.51,37.7,37.7,0,0,0-6.21,3.52" style="fill: rgb(255, 191, 157); transform-origin: 219.436px 360.316px;" id="elktxcrc6bmv" class="animable"></path><path d="M214,360.55a11.89,11.89,0,0,1,2.45-1.79c.79-.49,1.76-1,2.87-1.59a16.79,16.79,0,0,1,1.8-.77,2.86,2.86,0,0,1,3.8,3.66,5.17,5.17,0,0,1-2,2.71,10.54,10.54,0,0,1-1.93,1.11,2.57,2.57,0,0,1-.77.28s.23-.19.67-.46a13.34,13.34,0,0,0,1.8-1.22,5,5,0,0,0,1.73-2.54,2.74,2.74,0,0,0-.1-1.74,2.37,2.37,0,0,0-1.22-1.34,2.68,2.68,0,0,0-1.85,0,15.28,15.28,0,0,0-1.75.73c-1.11.51-2.09,1-2.9,1.47C215,360,214.08,360.61,214,360.55Z" style="fill: rgb(255, 154, 108); transform-origin: 219.557px 360.163px;" id="elffsrfh74s4p" class="animable"></path><path d="M251.15,369c-.05-.33-7.08-9.34-9.47-12.07s-9.51-6.81-9.7-9.85a65.89,65.89,0,0,1,0-6.66s-2.06-2-4.32.86a10.89,10.89,0,0,0-1.51,10c1.06,3,5.12,7.44,5.12,7.44a17.83,17.83,0,0,0,1.3,10.63c2.53,5.33,10.57,9.76,10.89,9.81s9.15-6.47,9.15-6.47Z" style="fill: rgb(255, 191, 157); transform-origin: 239.081px 359.45px;" id="elkogiohhwb8d" class="animable"></path><path d="M242.06,379a5.9,5.9,0,0,1-1.24-.46,22.45,22.45,0,0,1-3.18-1.71,16.67,16.67,0,0,1-4-3.59,14.21,14.21,0,0,1-2.72-6,19.32,19.32,0,0,1-.33-4.56,31,31,0,0,1,.51-4l0,.18c-1.54-1.91-2.92-3.47-3.69-4.71a7.64,7.64,0,0,1-.77-1.5,1.47,1.47,0,0,1-.14-.58,14.72,14.72,0,0,0,1.13,1.94c.82,1.18,2.22,2.66,3.82,4.57l.07.08,0,.1a34.8,34.8,0,0,0-.45,4,19.91,19.91,0,0,0,.34,4.43A13.93,13.93,0,0,0,234,373a17.72,17.72,0,0,0,3.83,3.58C240.34,378.26,242.11,378.94,242.06,379Z" style="fill: rgb(255, 154, 108); transform-origin: 234.281px 365.535px;" id="elsegt7mzcks" class="animable"></path><path d="M220.32,371.39a5.05,5.05,0,0,0-2.08-1.25,11.41,11.41,0,0,0,1.59-4.94,3.79,3.79,0,0,0-.11-1.54,1.68,1.68,0,0,0-1-1.1c-.87-.3-1.77.39-2.37,1.09a12.06,12.06,0,0,0-2.35,4.21" style="fill: rgb(255, 191, 157); transform-origin: 217.16px 366.939px;" id="elv29xpxu0es" class="animable"></path><path d="M214,367.86a6.62,6.62,0,0,1,.94-2.55,9.46,9.46,0,0,1,1.8-2.39,2.35,2.35,0,0,1,1.75-.67,1.86,1.86,0,0,1,1.5,1.37,4.88,4.88,0,0,1,.06,2,10.92,10.92,0,0,1-1.65,4.57l-.1-.26a4.77,4.77,0,0,1,1.6.92c.32.28.45.48.43.5a8.1,8.1,0,0,0-2.13-1.08l-.21-.06.11-.2a11.79,11.79,0,0,0,1.11-2.71,11.65,11.65,0,0,0,.34-1.74,4.68,4.68,0,0,0-.06-1.83,1.37,1.37,0,0,0-1.06-1,2,2,0,0,0-1.38.54,9.93,9.93,0,0,0-1.79,2.21C214.38,366.89,214.08,367.89,214,367.86Z" style="fill: rgb(255, 154, 108); transform-origin: 217.166px 366.799px;" id="elx61acs4dab" class="animable"></path><path d="M224,393.82c-.08-.15,1.3-.8,2.51-2.14a9,9,0,0,0,1.57-2.83c.06,0,.13.4,0,1a4.74,4.74,0,0,1-1.17,2.16A5.14,5.14,0,0,1,224,393.82Z" style="fill: rgb(38, 50, 56); transform-origin: 226.075px 391.335px;" id="elgrsnmwgl1qi" class="animable"></path><path d="M235.82,391.92a5,5,0,0,1-3.29-.9,4.83,4.83,0,0,1-1.73-1.74c-.3-.57-.34-1-.29-1a9,9,0,0,0,2.29,2.28C234.34,391.52,235.85,391.76,235.82,391.92Z" style="fill: rgb(38, 50, 56); transform-origin: 233.156px 390.108px;" id="el8sf2n7qzwsl" class="animable"></path><g id="el7zm9iavps1k"><circle cx="214.49" cy="337.04" r="0.75" style="fill: rgb(255, 255, 255); opacity: 0.3; transform-origin: 214.49px 337.04px;" class="animable"></circle></g><g id="elp16a7ofry9q"><path d="M222,343.11a.75.75,0,1,1-.75-.74A.74.74,0,0,1,222,343.11Z" style="fill: rgb(255, 255, 255); opacity: 0.6; transform-origin: 221.25px 343.12px;" class="animable"></path></g><g id="el0jecgn9kiniw"><circle cx="220.73" cy="334.52" r="0.75" style="fill: rgb(255, 255, 255); opacity: 0.6; transform-origin: 220.73px 334.52px;" class="animable"></circle></g><g id="eluvwzehul33r"><circle cx="213.42" cy="330.28" r="0.75" style="fill: rgb(255, 255, 255); opacity: 0.3; transform-origin: 213.42px 330.28px;" class="animable"></circle></g><g id="elr4wssq2n4g"><circle cx="217.84" cy="339.07" r="0.59" style="fill: rgb(255, 255, 255); opacity: 0.3; transform-origin: 217.84px 339.07px;" class="animable"></circle></g><g id="ely9jw3mlk5bs"><circle cx="224.25" cy="334.14" r="0.59" style="fill: rgb(255, 255, 255); opacity: 0.3; transform-origin: 224.25px 334.14px;" class="animable"></circle></g><g id="ellisn2nmnlrs"><path d="M216.28,341.6a.59.59,0,1,1-.58-.58A.58.58,0,0,1,216.28,341.6Z" style="fill: rgb(255, 255, 255); opacity: 0.6; transform-origin: 215.69px 341.61px;" class="animable"></path></g><g id="elqlmtkhjcu28"><path d="M225.15,338a.59.59,0,0,1-.59.59A.58.58,0,0,1,224,338a.59.59,0,0,1,.59-.59A.6.6,0,0,1,225.15,338Z" style="fill: rgb(255, 255, 255); opacity: 0.3; transform-origin: 224.575px 338px;" class="animable"></path></g><g id="eluqhol6susb8"><circle cx="218.89" cy="345.56" r="0.59" style="fill: rgb(255, 255, 255); opacity: 0.3; transform-origin: 218.89px 345.56px;" class="animable"></circle></g><g id="elz0vnscay47"><path d="M221.83,340.13a.47.47,0,1,1-.46-.47A.47.47,0,0,1,221.83,340.13Z" style="fill: rgb(255, 255, 255); opacity: 0.3; transform-origin: 221.36px 340.13px;" class="animable"></path></g><g id="eltbgizgqrdb"><path d="M223.65,346.24a.47.47,0,1,1-.93,0,.47.47,0,0,1,.93,0Z" style="fill: rgb(255, 255, 255); opacity: 0.3; transform-origin: 223.185px 346.308px;" class="animable"></path></g><g id="elnhqj5d4x6yi"><path d="M218,333.09a.46.46,0,0,1-.46.46.47.47,0,1,1,0-.93A.46.46,0,0,1,218,333.09Z" style="fill: rgb(255, 255, 255); opacity: 0.3; transform-origin: 217.501px 333.085px;" class="animable"></path></g><g id="el7mkd6w94p3"><path d="M220.38,330.69a.37.37,0,0,1-.24-.7.38.38,0,0,1,.47.23A.38.38,0,0,1,220.38,330.69Z" style="fill: rgb(255, 255, 255); opacity: 0.6; transform-origin: 220.259px 330.341px;" class="animable"></path></g><g id="eleazukp9g53b"><path d="M214.06,333.14a.37.37,0,1,1-.24-.69.37.37,0,1,1,.24.69Z" style="fill: rgb(255, 255, 255); opacity: 0.6; transform-origin: 213.94px 332.795px;" class="animable"></path></g><g id="elnrp3sjj6xxm"><path d="M208.8,314.17s.61,10.37,1.31,14.1c.23,1.18,8-5.81,8.32-8.29s-.39-8.3-.89-8.39S211.07,311.41,208.8,314.17Z" style="fill: rgb(255, 255, 255); opacity: 0.6; transform-origin: 213.655px 319.981px;" class="animable"></path></g><path d="M223.37,307.56a8.16,8.16,0,0,1-2.12,1.43,19,19,0,0,1-12.05,1.95,8.15,8.15,0,0,1-2.47-.69,28.34,28.34,0,0,0,8.57.19C220,309.71,223.29,307.39,223.37,307.56Z" style="fill: rgb(38, 50, 56); transform-origin: 215.05px 309.377px;" id="el6wof3jevtlo" class="animable"></path><path d="M213.37,345.56a4,4,0,0,1-.43-1c-.25-.66-.56-1.63-.91-2.84a62.33,62.33,0,0,1-1.88-9.64c-.45-3.82-.65-7.28-.81-9.78-.06-1.17-.12-2.16-.16-3a4.51,4.51,0,0,1,0-1.1,4.55,4.55,0,0,1,.2,1.08c.09.7.2,1.71.33,3,.25,2.49.51,5.95,1,9.74a77.22,77.22,0,0,0,1.72,9.62C213,344.05,213.45,345.53,213.37,345.56Z" style="fill: rgb(255, 255, 255); transform-origin: 211.263px 331.88px;" id="el2dczhberux1" class="animable"></path><path d="M222.09,309.41a6.48,6.48,0,0,1-1.82,1,19,19,0,0,1-4.85,1.36,18.36,18.36,0,0,1-5,0,6,6,0,0,1-2-.49,36.9,36.9,0,0,0,7,0A37.59,37.59,0,0,0,222.09,309.41Z" style="fill: rgb(255, 255, 255); transform-origin: 215.255px 310.675px;" id="elpgi1lbdkosb" class="animable"></path><path d="M241.27,392s-.23.22-.71.54a21.3,21.3,0,0,1-2.12,1.17,28.23,28.23,0,0,1-7.62,2.3,33.51,33.51,0,0,1-4.38.39,20.26,20.26,0,0,1-3.59-.14,6.1,6.1,0,0,1-2.31-.79c-.49-.32-.69-.58-.67-.6a6.85,6.85,0,0,0,3,1,24.05,24.05,0,0,0,3.53,0,39,39,0,0,0,4.31-.43,31.85,31.85,0,0,0,7.55-2.12C240.15,392.61,241.22,392,241.27,392Z" style="fill: rgb(255, 255, 255); transform-origin: 230.569px 394.213px;" id="eljgoeu6ililt" class="animable"></path><g id="elr6nw50b9b9"><g style="opacity: 0.6; transform-origin: 228.022px 391.525px;" class="animable"><path d="M229.73,392.41l-.9-2.69a7,7,0,0,1-2.56,3.61l.07,0a27.49,27.49,0,0,0,3-.32.54.54,0,0,0,.41-.22A.56.56,0,0,0,229.73,392.41Z" style="fill: rgb(255, 255, 255); transform-origin: 228.022px 391.525px;" id="elypgsj1lw34" class="animable"></path></g></g><path d="M420.56,276c0-9.61,2.3-19.12,2.27-28.74s-2.2-19.7-8.66-26.83-18-10.16-26-4.88l-1.9,8.12c1.78,37.16,0,74.79,1.81,112,.23,4.88,4,9.43,6.09,13.86s6.37,8.18,11.25,8.05c6.4-.16,28.73-7.57,29.39-13.92C439.28,300.79,420.55,320,420.56,276Z" style="fill: rgb(38, 50, 56); transform-origin: 410.885px 285.231px;" id="elamghy3esfpj" class="animable"></path><path d="M404,224.1a24.33,24.33,0,0,0-3.79-6.44,8.29,8.29,0,0,0-6.6-3,3.45,3.45,0,0,0-2.91,1.69c-.5,1.07.17,2.63,1.35,2.66l.23.23q3.54,3.85,7.23,7.57a7,7,0,0,0,2.07,1.6,2.36,2.36,0,0,0,2.48-.27C405.16,227.17,404.63,225.42,404,224.1Z" style="fill: rgb(69, 90, 100); transform-origin: 397.615px 221.65px;" id="ellitxf626st" class="animable"></path><path d="M408.05,233.13c-7.55-11.47-18.54-18.77-32.17-20.41-7.69-.93-11.05.34-16.75,1.27a24.41,24.41,0,0,0-14.82,7.73c-4.51,5.17-8.46,11.08-9.91,17.79-1.49,6.89-3,13.83-3.18,20.88s1,14.28,4.5,20.39l17.47,4.93c9.79,1.36,19.72,2.71,29.53,1.46s19.64-5.43,25.64-13.29C416.69,263,415.6,244.59,408.05,233.13Z" style="fill: rgb(38, 50, 56); transform-origin: 372.687px 250.03px;" id="el0ui4r5c1y7p" class="animable"></path><path d="M388.51,317.28l9.33-78.9a6.63,6.63,0,0,0-5.61-7l-22.74-11.89-6.27.07c-14-1.39-25.16,13-26.42,24.27-1.41,12.53-2.63,27.89-1.59,37.35,2.08,19,17.79,22.2,17.79,22.2s-1.36,9.88-2.12,16.11h0l0,.08a12.82,12.82,0,0,0,11.53,6.88,48.31,48.31,0,0,0,10.35-1.19A40,40,0,0,0,388.51,317.28Z" style="fill: rgb(255, 191, 157); transform-origin: 366.338px 272.959px;" id="elik66pi2ffx" class="animable"></path><path d="M341.22,260a2.42,2.42,0,0,0,2.21,2.56,2.31,2.31,0,0,0,2.6-2.06,2.42,2.42,0,0,0-2.21-2.56A2.32,2.32,0,0,0,341.22,260Z" style="fill: rgb(38, 50, 56); transform-origin: 343.625px 260.251px;" id="elda05hf4mjuu" class="animable"></path><path d="M340.4,250.53c.28.33,2.18-.94,4.78-.8s4.45,1.53,4.75,1.22c.14-.13-.13-.72-.94-1.36a6.56,6.56,0,0,0-3.78-1.37,6.42,6.42,0,0,0-3.83,1C340.55,249.83,340.25,250.38,340.4,250.53Z" style="fill: rgb(38, 50, 56); transform-origin: 345.164px 249.602px;" id="elsjm541oasef" class="animable"></path><path d="M354.93,272.56c0-.15-1.59-.51-4.2-1-.66-.1-1.28-.26-1.37-.72a3.42,3.42,0,0,1,.54-1.95l2.21-5c3.08-7.07,5.35-12.9,5.06-13s-3,5.51-6.1,12.59l-2.13,5a3.84,3.84,0,0,0-.47,2.59,1.66,1.66,0,0,0,1,1,4.32,4.32,0,0,0,1.12.22C353.27,272.62,354.91,272.71,354.93,272.56Z" style="fill: rgb(38, 50, 56); transform-origin: 352.805px 261.759px;" id="elu8qyia9a3mc" class="animable"></path><path d="M353,303.35a48.11,48.11,0,0,0,25.59-5.51s-7.37,12.75-26.16,10.06Z" style="fill: rgb(255, 154, 108); transform-origin: 365.51px 303.056px;" id="elftcsxfua9sp" class="animable"></path><path d="M342.22,241.56c.4.65,2.42.33,4.74.63s4.22,1,4.76.47c.24-.27,0-.9-.76-1.58a7.41,7.41,0,0,0-7.66-.89C342.4,240.68,342,241.24,342.22,241.56Z" style="fill: rgb(38, 50, 56); transform-origin: 346.985px 241.182px;" id="eltsnwmuh4o6e" class="animable"></path><path d="M368.92,262.19a2.42,2.42,0,0,1-2.54,2.23,2.32,2.32,0,0,1-2.3-2.39,2.42,2.42,0,0,1,2.54-2.23A2.32,2.32,0,0,1,368.92,262.19Z" style="fill: rgb(38, 50, 56); transform-origin: 366.5px 262.11px;" id="elysc9g4wan" class="animable"></path><path d="M375.53,253.16c-.32.29-2-1.22-4.63-1.43s-4.62.91-4.87.57c-.13-.15.23-.69,1.11-1.23a6.7,6.7,0,0,1,3.93-.85,6.45,6.45,0,0,1,3.66,1.54C375.47,252.44,375.69,253,375.53,253.16Z" style="fill: rgb(38, 50, 56); transform-origin: 370.792px 251.694px;" id="elb6lhdcet41j" class="animable"></path><path d="M374.84,244.71c-.56.54-2.52-.24-4.92-.48s-4.49,0-4.9-.64c-.18-.32.19-.88,1.13-1.36a7.44,7.44,0,0,1,4.09-.62,7.31,7.31,0,0,1,3.82,1.52C374.86,243.81,375.09,244.44,374.84,244.71Z" style="fill: rgb(38, 50, 56); transform-origin: 369.956px 243.221px;" id="el3yra02b8ea9" class="animable"></path><path d="M391.35,269.57c.07-1.4,1.85-4.64,3.25-4.79,3.74-.39,10.4.23,10,9.64-.54,12.87-13.34,9.67-13.35,9.3S391.1,274.42,391.35,269.57Z" style="fill: rgb(255, 191, 157); transform-origin: 397.91px 274.517px;" id="elnm9bmzjm4qs" class="animable"></path><path d="M395,279.17c.06,0,.22.17.59.36a2.27,2.27,0,0,0,1.67.1c1.38-.44,2.62-2.55,2.78-4.87a7.35,7.35,0,0,0-.5-3.23,2.57,2.57,0,0,0-1.61-1.79,1.14,1.14,0,0,0-1.35.55c-.19.36-.12.62-.18.64s-.27-.23-.15-.76a1.46,1.46,0,0,1,.54-.78,1.71,1.71,0,0,1,1.26-.28,3.13,3.13,0,0,1,2.25,2.1,7.59,7.59,0,0,1,.63,3.61c-.19,2.59-1.62,5-3.5,5.42a2.41,2.41,0,0,1-2-.42C395,279.48,395,279.19,395,279.17Z" style="fill: rgb(255, 154, 108); transform-origin: 397.975px 274.695px;" id="eliaqkqp36lj" class="animable"></path><path d="M395.12,264.88l-3.6,3C378.89,253,355,216.56,356.28,218.73c0,0,10-3,20.27-.1S406,228.76,404.46,241,395.12,264.88,395.12,264.88Z" style="fill: rgb(38, 50, 56); transform-origin: 380.389px 242.623px;" id="ela2r9q9qtacq" class="animable"></path><path d="M414,264a3.66,3.66,0,0,0-.12-.76,12.65,12.65,0,0,0-.66-2.11,18.78,18.78,0,0,0-4.72-6.56,35,35,0,0,0-10.22-6.29c-4.13-1.84-8.84-3.42-13.36-5.94a63.1,63.1,0,0,1-11.9-8.39,65.58,65.58,0,0,1-8.11-8.72,71.15,71.15,0,0,1-4.52-6.65l-1.1-1.9a3.06,3.06,0,0,0-.42-.64,3.88,3.88,0,0,0,.3.7c.23.45.54,1.13,1,2a59.65,59.65,0,0,0,4.37,6.8,63,63,0,0,0,8.07,8.89,61.51,61.51,0,0,0,12,8.51c4.58,2.56,9.33,4.13,13.44,5.92a35.79,35.79,0,0,1,10.15,6.08,19.21,19.21,0,0,1,4.79,6.33C413.74,263,413.92,264,414,264Z" style="fill: rgb(69, 90, 100); transform-origin: 386.435px 240.02px;" id="elsxc4k32kq2o" class="animable"></path><path d="M410.06,265.61a6.71,6.71,0,0,0-.21-2.85,13.08,13.08,0,0,0-4.18-6.52c-2.46-2.27-6.14-3.89-10.23-5.29a63,63,0,0,1-12.82-5.58,56.12,56.12,0,0,1-11.06-8.52,58.22,58.22,0,0,1-7.28-8.8,62.85,62.85,0,0,1-3.87-6.68l-.9-1.91a2.36,2.36,0,0,0-.36-.64,3.4,3.4,0,0,0,.24.7c.2.51.47,1.16.79,2a52,52,0,0,0,3.71,6.82,55.44,55.44,0,0,0,18.39,17.64,62.18,62.18,0,0,0,13,5.59c4.09,1.35,7.7,2.9,10.13,5.06a13.33,13.33,0,0,1,4.24,6.24A15,15,0,0,1,410.06,265.61Z" style="fill: rgb(69, 90, 100); transform-origin: 384.638px 242.215px;" id="elnojs80r40fn" class="animable"></path><path d="M392.45,286.48c0-.09,1.11-.12,3.05-.42a18.41,18.41,0,0,0,7.57-3.25,25.84,25.84,0,0,0,7.7-9.48,45.19,45.19,0,0,0,4.31-14.47,35,35,0,0,0-1.22-15,37,37,0,0,0-5.55-11c-4.22-5.7-8-8.21-7.81-8.37s.25.13.67.44,1.06.76,1.81,1.42a39.18,39.18,0,0,1,5.81,6.15,36.63,36.63,0,0,1,5.82,11.13,35,35,0,0,1,1.31,15.3,44.83,44.83,0,0,1-4.45,14.71,26,26,0,0,1-8.05,9.62,17.79,17.79,0,0,1-7.87,3.09,16.59,16.59,0,0,1-2.3.13A2.94,2.94,0,0,1,392.45,286.48Z" style="fill: rgb(69, 90, 100); transform-origin: 404.346px 255.476px;" id="el1y49kpu01gk" class="animable"></path><path d="M363.12,276.18a2.06,2.06,0,0,1,1.15-.29,1.67,1.67,0,0,1,.92.59,4.4,4.4,0,0,1-3.63,7.34c-1.74-.14-3.74-1.29-4.54-4.54C358.93,278.37,361.2,277.1,363.12,276.18Z" style="fill: rgb(255, 154, 108); transform-origin: 361.675px 279.862px;" id="elk89bjsltxwk" class="animable"></path><path d="M361.55,284a6.56,6.56,0,0,0,2.62-.91,4.08,4.08,0,0,0,1.67-2.33,4.35,4.35,0,0,0-.53-3.42c-.35-.51-.8-1-1.25-1a5.25,5.25,0,0,0-1.58.64l-2.81,1.35a13.09,13.09,0,0,1-2.66,1.11,12.76,12.76,0,0,1,2.46-1.51l2.76-1.48a5.14,5.14,0,0,1,1.81-.73,1.55,1.55,0,0,1,1.1.43,3.72,3.72,0,0,1,.7.83,4.78,4.78,0,0,1,.57,3.92,4.5,4.5,0,0,1-2,2.55A3.48,3.48,0,0,1,361.55,284Z" style="fill: rgb(38, 50, 56); transform-origin: 361.805px 279.91px;" id="elsli5igpz24" class="animable"></path><path d="M260,372.24l30.87,16.28s8.06-17.44,16-40.26c8.68-25,20.57-25.17,20.57-25.17l7.4,54.92-7.66,21.42s-11.78,23.24-18,26.16c-21.81,10.28-65.45-30.92-65.45-30.92Z" style="fill: rgb(0, 255, 136); transform-origin: 289.285px 375.164px;" id="elvrp7iatj77j" class="animable"></path><path d="M425.53,461.45c-4.73-12.53-12-37.69-14.67-43.69l4.83-39.67,2.43-48.73c.37-4,.49-6.51-3.22-8.07l-26.2-5.62c-21.73,15.61-32.78,8.39-37.4.45-.71.74-17.3,4.1-25.05,7.15-2.95,1.17-3.21,5.66-3.21,5.66-3.45,17.52-6.64,34.89-5.94,53,.71,18.71,2,23.41,2.26,24.15l3.36,17.61c-.65,8.29-3.7,35.43-6,46.68l110,.1S427.74,467.32,425.53,461.45Z" style="fill: rgb(0, 255, 136); transform-origin: 371.837px 393.07px;" id="elbavquhedom4" class="animable"></path><path d="M457.94,438.3c-3.7-19.63-16.31-44.16-17.2-76.89C439.8,327.08,414.28,321,414.28,321l-6.47,43.1,4.91,23.28,6.46,28.95,14.94,54.13,28.3.06C461.06,460.12,459,443.88,457.94,438.3Z" style="fill: rgb(0, 255, 136); transform-origin: 435.115px 395.76px;" id="eldx8l8m69qvw" class="animable"></path><g id="elidrc921qf38"><g style="opacity: 0.3; transform-origin: 315.635px 377.93px;" class="animable"><path d="M319.59,352.09s-9,22.14-7.8,32.87a47.42,47.42,0,0,0,6.63,18.81s-1.83-17.82-1.29-25.84S319.59,352.09,319.59,352.09Z" id="elbe80de2im6n" class="animable" style="transform-origin: 315.635px 377.93px;"></path></g></g><path d="M296.71,400.84c-.16,0-1-2.9-2.63-6.27s-3.37-5.88-3.24-6a7.09,7.09,0,0,1,1.27,1.56,28.92,28.92,0,0,1,2.43,4.2,29.87,29.87,0,0,1,1.75,4.52A6.85,6.85,0,0,1,296.71,400.84Z" style="fill: rgb(38, 50, 56); transform-origin: 293.772px 394.705px;" id="el1mt3qb4tkwr" class="animable"></path><path d="M419,357.88a2.35,2.35,0,0,1,0,.61c-.06.46-.13,1-.21,1.75-.21,1.59-.49,3.76-.84,6.42-.75,5.48-1.78,12.93-2.91,21.17s-2.16,15.69-2.91,21.16c-.36,2.66-.65,4.84-.86,6.42-.09.71-.17,1.29-.23,1.75a2.59,2.59,0,0,1-.12.6,4,4,0,0,1,0-.61l.14-1.76c.14-1.52.37-3.73.69-6.44.64-5.43,1.62-12.93,2.77-21.19s2.24-15.74,3.06-21.15c.41-2.65.75-4.82,1-6.4.12-.7.22-1.28.3-1.73A3,3,0,0,1,419,357.88Z" style="fill: rgb(38, 50, 56); transform-origin: 414.964px 387.82px;" id="el89hz4zhb72l" class="animable"></path><path d="M389.72,440.16a2,2,0,0,1-.56-.09l-1.59-.38c-1.39-.33-3.37-.85-5.82-1.53-4.89-1.37-11.6-3.45-18.87-6.13s-13.73-5.44-18.34-7.58c-2.31-1.06-4.16-1.95-5.43-2.6l-1.45-.74a2.05,2.05,0,0,1-.49-.3,3.76,3.76,0,0,1,.54.2l1.49.66,5.49,2.45c4.64,2,11.11,4.74,18.37,7.42s13.94,4.81,18.79,6.26l5.77,1.7,1.56.47A2.88,2.88,0,0,1,389.72,440.16Z" style="fill: rgb(38, 50, 56); transform-origin: 363.445px 430.485px;" id="elss9xr38g0nc" class="animable"></path><path d="M372.59,412.45a8.32,8.32,0,0,1-2-.82c-1.2-.58-2.83-1.46-4.57-2.53a50.79,50.79,0,0,1-4.3-3,8.55,8.55,0,0,1-1.64-1.42c.1-.13,2.76,1.81,6.21,3.94S372.66,412.31,372.59,412.45Z" style="fill: rgb(38, 50, 56); transform-origin: 366.336px 408.562px;" id="elmc3guog8uv" class="animable"></path><path d="M322.07,343.78a2.93,2.93,0,0,1-.13.71c-.12.52-.27,1.19-.47,2s-.47,2-.72,3.21-.6,2.68-.87,4.28-.62,3.33-.88,5.21-.53,3.9-.79,6c-.44,4.25-.77,8.94-.84,13.88s.16,9.63.49,13.89c.21,2.13.38,4.15.64,6s.49,3.64.75,5.24.53,3,.76,4.3.45,2.35.64,3.23.32,1.53.43,2a3.55,3.55,0,0,1,.11.72,3.47,3.47,0,0,1-.22-.69l-.51-2c-.23-.88-.49-2-.74-3.22s-.58-2.7-.83-4.3-.58-3.35-.81-5.24-.47-3.92-.69-6.05c-.37-4.27-.59-9-.54-13.94s.42-9.66.89-13.92c.27-2.13.5-4.15.84-6s.62-3.63.94-5.22.65-3,.94-4.27.57-2.33.82-3.2.42-1.5.56-2A5.22,5.22,0,0,1,322.07,343.78Z" style="fill: rgb(38, 50, 56); transform-origin: 319.456px 379.115px;" id="elk9urlmxrpl" class="animable"></path></g><g id="freepik--character-1--inject-14" class="animable" style="transform-origin: 125.175px 318.182px;"><path d="M106.84,289.13l-3.18-74.71c-1.4-18.56,8.24-34.84,26.83-35.72l1.72,0A33.26,33.26,0,0,1,165,209.67c1.12,16.09,2.15,33.88,2,42.51-.41,17.85-18.3,20.43-18.3,20.43s.22,10.86.39,16.1l4.56,12.11-14.79-3.13Z" style="fill: rgb(174, 116, 97); transform-origin: 135.27px 239.76px;" id="el0g82ixtypbzk" class="animable"></path><path d="M148.69,272.61a43.15,43.15,0,0,1-23.18-7.12S131,279,148.79,277.56Z" style="fill: rgb(111, 68, 57); transform-origin: 137.15px 271.579px;" id="elil6ozi4uq9f" class="animable"></path><path d="M159.81,225.23a2.54,2.54,0,0,1-2.48,2.54,2.45,2.45,0,0,1-2.61-2.33,2.55,2.55,0,0,1,2.49-2.54A2.44,2.44,0,0,1,159.81,225.23Z" style="fill: rgb(38, 50, 56); transform-origin: 157.265px 225.335px;" id="el7ej953yzfil" class="animable"></path><path d="M161.16,217.51c-.32.33-2.24-1.12-5-1.14s-4.77,1.32-5.07,1c-.14-.15.19-.74,1.07-1.37a6.94,6.94,0,0,1,4.06-1.2,6.76,6.76,0,0,1,4,1.32C161,216.76,161.32,217.36,161.16,217.51Z" style="fill: rgb(38, 50, 56); transform-origin: 156.13px 216.179px;" id="elxzasds3aci" class="animable"></path><path d="M135.17,226a2.55,2.55,0,0,1-2.49,2.55,2.44,2.44,0,0,1-2.6-2.33,2.55,2.55,0,0,1,2.48-2.55A2.45,2.45,0,0,1,135.17,226Z" style="fill: rgb(38, 50, 56); transform-origin: 132.625px 226.11px;" id="eljigqobbqbi" class="animable"></path><path d="M134.25,217.85c-.32.33-2.24-1.12-5-1.14s-4.77,1.33-5.06,1c-.15-.15.18-.75,1.07-1.38a6.91,6.91,0,0,1,4.05-1.2,6.76,6.76,0,0,1,4,1.32C134.13,217.1,134.41,217.71,134.25,217.85Z" style="fill: rgb(38, 50, 56); transform-origin: 129.224px 216.514px;" id="elnlhvy6l6fv" class="animable"></path><path d="M143.87,239.05c0-.16,1.69-.44,4.46-.76.7-.06,1.37-.2,1.49-.67a3.54,3.54,0,0,0-.44-2.08c-.64-1.71-1.31-3.49-2-5.36-2.79-7.63-4.81-13.9-4.5-14s2.82,6,5.62,13.61q1,2.82,1.93,5.39a4.1,4.1,0,0,1,.33,2.76,1.78,1.78,0,0,1-1.16,1,5.09,5.09,0,0,1-1.2.15C145.6,239.21,143.88,239.2,143.87,239.05Z" style="fill: rgb(38, 50, 56); transform-origin: 146.857px 227.675px;" id="elbipscgurdjd" class="animable"></path><path d="M135.24,209.28c-.39.7-3-.07-6.28-.18s-6,.37-6.27-.35c-.14-.35.41-1,1.56-1.53a10.9,10.9,0,0,1,9.56.41C134.91,208.28,135.4,209,135.24,209.28Z" style="fill: rgb(38, 50, 56); transform-origin: 128.969px 207.94px;" id="elb7s4kapi2w4" class="animable"></path><path d="M161.37,209.44c-.56.63-2.8,0-5.49,0s-5,.44-5.49-.21c-.23-.31.13-.94,1.12-1.53a9.19,9.19,0,0,1,8.85.19C161.31,208.5,161.62,209.14,161.37,209.44Z" style="fill: rgb(38, 50, 56); transform-origin: 155.888px 208.189px;" id="elpfg4o4b3zbs" class="animable"></path><path d="M105,227.66c-.3-.14-12.23-3.77-12,8.45s12.46,9.43,12.47,9.08S105,227.66,105,227.66Z" style="fill: rgb(174, 116, 97); transform-origin: 99.2334px 236.379px;" id="el36z8941dh5h" class="animable"></path><path d="M101.65,240.64c-.06,0-.21.16-.57.33a2.1,2.1,0,0,1-1.59.06c-1.3-.44-2.43-2.47-2.53-4.67a6.9,6.9,0,0,1,.53-3.06,2.45,2.45,0,0,1,1.56-1.66,1.07,1.07,0,0,1,1.27.56c.17.33.1.58.17.6s.25-.21.14-.71a1.31,1.31,0,0,0-.49-.76A1.65,1.65,0,0,0,99,231,3,3,0,0,0,96.77,233a7.32,7.32,0,0,0-.66,3.42c.13,2.46,1.43,4.74,3.21,5.21a2.29,2.29,0,0,0,1.94-.36C101.63,240.94,101.69,240.66,101.65,240.64Z" style="fill: rgb(111, 68, 57); transform-origin: 98.8808px 236.351px;" id="elnqrh8n8sec" class="animable"></path><path d="M189.2,192.86a2.94,2.94,0,0,0-1.39-1.67c-1.42-.8-3-.66-4.59-.65a25.68,25.68,0,0,1-11.22-2.6,12.57,12.57,0,0,0,3.24-2.37c1.93-2,3-5,2.06-7.66a1.7,1.7,0,0,0-1-1.15c-.8-.23-1.48.56-2,1.19-1.78,2.07-3.45,3-6.16,2.75a10.85,10.85,0,0,1-4.67-1.28c-.06-.06-.1-.12-.16-.17-.65-.64-1.28-1.26-1.9-1.85h0c-4.68-4.46-8.7-7.55-12.79-9.11-6-2.29-16-3.07-22.19-1.32s-11.67,6.9-12.42,13.29c-3.54-2.89-8.77-2.76-13-1l-.1-.05c-4.7,1.78-7.29,6.82-8.6,11.67-.07.27-.13.54-.2.8A18.74,18.74,0,0,1,85.88,198c-.46.27-1,.61-1,1.14s.4.94.84,1.24a9.46,9.46,0,0,0,3.85,1.52,20.91,20.91,0,0,1-1.5,3.35c-.52.92-1.13,2-.65,2.94a2,2,0,0,0,2.11.87,5.77,5.77,0,0,0,2.18-1c-.5,1.28-1,2.55-1.51,3.82a11.06,11.06,0,0,0,5.14-.44c1.09,4.49,2,12.83,3.22,15.87,3.24,0,4-.38,5.67.14,2.13.66,1.39,4.42,4.13,3.3,1.39-.57,3.44-5.92,3.88-7.35a69.83,69.83,0,0,0,2.46-29.58,22.4,22.4,0,0,1,6.82-5.13l-.2.2c5-1.83,10.57-3.65,15.36-1.39,3.71,1.75,5.94,5.52,8.74,8.51,5.32,5.67,11.27,8.64,19,8.82.81,5.38,1.18,14.19,1.54,19.22l4.11-10.15v0c.33-.6.61-1.2.88-1.8l.09-.18v0a29.06,29.06,0,0,1,1.36-2.89l.05,0c2.77,2.35,6.72-1.4,4.51-4.29a7.11,7.11,0,0,0-1.55-1.5,5,5,0,0,0,4.76,1.14,3.91,3.91,0,0,0,2.69-3.91,3.33,3.33,0,0,0-2-2.63,11.21,11.21,0,0,0,6.35-1.52C188.44,195.64,189.65,194.43,189.2,192.86Z" style="fill: rgb(38, 50, 56); transform-origin: 137.088px 198.486px;" id="eltqsf37jb2le" class="animable"></path><path d="M119.68,182.19a15.68,15.68,0,0,0-1.76,1.67,12.84,12.84,0,0,0-2.64,6,23.1,23.1,0,0,0-.37,4.55c0,1.65.19,3.41.35,5.26a46.37,46.37,0,0,1,.25,5.86,20.69,20.69,0,0,1-.34,3.1,6.56,6.56,0,0,1-1.21,3,2.68,2.68,0,0,1-2.5.89,4,4,0,0,1-2.3-1.24,9.35,9.35,0,0,1-1.81-4.51l.38,0a14.79,14.79,0,0,1-2.11,3.78,5.29,5.29,0,0,1-3.44,2,3.51,3.51,0,0,1-1.85-.28,3.09,3.09,0,0,1-1.27-1.21,3,3,0,0,1-.41-1.58,2.22,2.22,0,0,1,.55-1.4l.19.16a11.56,11.56,0,0,1-3.79,3,9.44,9.44,0,0,1-1.18.48,2.2,2.2,0,0,1-.42.12,1.72,1.72,0,0,1,.4-.18c.26-.12.66-.28,1.14-.54a11.8,11.8,0,0,0,3.65-3l.2.17a2.28,2.28,0,0,0-.07,2.66,2.77,2.77,0,0,0,1.15,1.07,3.16,3.16,0,0,0,1.68.24,5,5,0,0,0,3.19-1.86,15,15,0,0,0,2-3.71l.25-.58.13.62a8.94,8.94,0,0,0,1.72,4.31,3.61,3.61,0,0,0,2.06,1.11,2.28,2.28,0,0,0,2.13-.76,6.17,6.17,0,0,0,1.11-2.83,19.66,19.66,0,0,0,.34-3,45.86,45.86,0,0,0-.22-5.81c-.15-1.86-.3-3.63-.31-5.29a22.86,22.86,0,0,1,.42-4.62,12.74,12.74,0,0,1,2.8-6A7.15,7.15,0,0,1,119.68,182.19Z" style="fill: rgb(69, 90, 100); transform-origin: 106.84px 197.383px;" id="el55anxe78fw7" class="animable"></path><path d="M175.3,198.53s0,.05-.14.13l-.44.33a5.39,5.39,0,0,1-.75.5,8.56,8.56,0,0,1-1.07.59,15.93,15.93,0,0,1-7.63,1.53,20.33,20.33,0,0,1-10.86-3.78,35.07,35.07,0,0,1-9.47-10.51c-1.34-2.14-2.44-4.34-3.65-6.36a23.81,23.81,0,0,0-4.1-5.37,12.27,12.27,0,0,0-5.21-3,8.79,8.79,0,0,0-2.72-.26,9.43,9.43,0,0,0-2.48.53,10.33,10.33,0,0,0-5.65,5,12,12,0,0,0-.87,2.69s0-.06,0-.19,0-.32.07-.54a9.15,9.15,0,0,1,.64-2,10.35,10.35,0,0,1,5.7-5.17,9.48,9.48,0,0,1,2.56-.57,8.89,8.89,0,0,1,2.83.25,12.41,12.41,0,0,1,5.38,3.08,23.63,23.63,0,0,1,4.19,5.44c1.22,2,2.32,4.23,3.65,6.35a35.23,35.23,0,0,0,9.34,10.41,20.13,20.13,0,0,0,10.65,3.8,16.19,16.19,0,0,0,7.55-1.37A23.75,23.75,0,0,0,175.3,198.53Z" style="fill: rgb(69, 90, 100); transform-origin: 147.78px 186.843px;" id="elff772lq3ki7" class="animable"></path><path d="M176.78,190.65a3.59,3.59,0,0,1-.63.46,14.9,14.9,0,0,1-1.88,1,19.08,19.08,0,0,1-3,1,19.5,19.5,0,0,1-7.71.39,18,18,0,0,1-3.07-.73,15.23,15.23,0,0,1-2-.8,2.7,2.7,0,0,1-.67-.4c0-.07,1,.42,2.73.92a21.36,21.36,0,0,0,3,.63,20.61,20.61,0,0,0,7.56-.38,21.15,21.15,0,0,0,3-.95C175.8,191.17,176.74,190.58,176.78,190.65Z" style="fill: rgb(69, 90, 100); transform-origin: 167.3px 192.18px;" id="els0vs0uwiwr8" class="animable"></path><path d="M145.3,245.62c-.22,0-9.74-3.4-9.74-3.4s-2.56,5.53.81,7.93,7.34.7,7.93-.81A23.83,23.83,0,0,0,145.3,245.62Z" style="fill: rgb(111, 68, 57); transform-origin: 139.964px 246.784px;" id="el117l4ljjwo7h" class="animable"></path><path d="M143.32,250.42a11.2,11.2,0,0,1-1.31.46,9.38,9.38,0,0,1-3.69-.11h0a5.33,5.33,0,0,1-2.82-2,5.27,5.27,0,0,1-.46-3.95,10.39,10.39,0,0,1,.83-2.45l-.47.18c2.89,1,5.43,1.82,7.25,2.39a13.9,13.9,0,0,0,3,.77,12.7,12.7,0,0,0-2.8-1.25c-1.78-.69-4.29-1.62-7.16-2.64l-.32-.12-.16.3a11.17,11.17,0,0,0-.93,2.66,5.93,5.93,0,0,0,.62,4.52,5.79,5.79,0,0,0,3.27,2.17h0a8.49,8.49,0,0,0,3.92-.17C143,250.93,143.36,250.44,143.32,250.42Z" style="fill: rgb(38, 50, 56); transform-origin: 139.866px 246.601px;" id="elixd40vs8kx8" class="animable"></path><path d="M204,367.66l14,102.69H192.7S179,424.07,177.1,413.68c-.68-3.7-3.4-42.43-3.4-42.43Z" style="fill: rgb(174, 116, 97); transform-origin: 195.85px 419.005px;" id="elxirmuqd9ui" class="animable"></path><path d="M185.45,300.27c5.44,3.77,9.92,9.14,11.59,19.16l9.72,48.79-23.24,7.36-9.82-55.51Z" style="fill: rgb(0, 255, 136); transform-origin: 190.23px 337.925px;" id="el3ewsy875fhf" class="animable"></path><path d="M190.63,470.35l-3.33-72.72s.8-82.78-1.85-97.36l-27.47-13-9.08-4.3s1,11.08-9.39,11c-14.64-.16-33.42-14.94-33.42-14.94L63.28,293.2s5.54,49.85,5.57,50.85,3.53,54.66,3.53,54.66l-4.79,65.36s-4.05,3.78-4.31,6.28H190.63" style="fill: rgb(0, 255, 136); transform-origin: 126.955px 374.69px;" id="elqvo8qdurth" class="animable"></path><path d="M186.8,319.8a14.53,14.53,0,0,0-.08,2.4c0,1.69,0,3.89.06,6.54.11,5.66.25,13.22.4,21.58s.19,16.05.16,21.57c0,2.65,0,4.85,0,6.54a15.61,15.61,0,0,0,.07,2.4,13,13,0,0,0,.24-2.39c.11-1.54.22-3.78.29-6.54.17-5.53.21-13.16.08-21.6s-.4-16.05-.63-21.57c-.13-2.66-.24-4.85-.32-6.54A13.59,13.59,0,0,0,186.8,319.8Z" style="fill: rgb(38, 50, 56); transform-origin: 187.4px 350.315px;" id="el65ocjghqgkt" class="animable"></path><path d="M63.28,293.2c-1,.36-12.59,4.16-18.46,21.13s-12.47,59-12.47,59l44.06,3.53,3-49.11Z" style="fill: rgb(0, 255, 136); transform-origin: 55.88px 335.03px;" id="eldkjfawvcp8" class="animable"></path><path d="M77.7,307.54c-.09,0-.35-1.07-1.1-2.68A16.59,16.59,0,0,0,66.47,296c-1.7-.54-2.82-.65-2.81-.74a2.35,2.35,0,0,1,.79,0,12.48,12.48,0,0,1,2.12.38,15.52,15.52,0,0,1,10.36,9.06,12.52,12.52,0,0,1,.66,2.05A2.27,2.27,0,0,1,77.7,307.54Z" style="fill: rgb(38, 50, 56); transform-origin: 70.6808px 301.383px;" id="eljsxf9hqs8v" class="animable"></path><path d="M70.33,393.23,73,376.18l-37.82-3.24S32,403.37,35.42,418c3,12.77,11.55,19.16,28,17.54S136,389.49,136,389.49l-7.4-21.93Z" style="fill: rgb(174, 116, 97); transform-origin: 84.9176px 401.674px;" id="elmwmfmx0ly4d" class="animable"></path><path d="M64.71,405.46a6.27,6.27,0,0,1,.34-2.06,25.23,25.23,0,0,1,1.77-4.71,27.2,27.2,0,0,1,2.62-4.3,6.76,6.76,0,0,1,1.38-1.56c.13.1-1.83,2.6-3.53,6.09S64.86,405.49,64.71,405.46Z" style="fill: rgb(111, 68, 57); transform-origin: 67.768px 399.145px;" id="el2cqt4evqjo7" class="animable"></path><path d="M171.61,387.58a7,7,0,0,0-.9-1.72c-2-2.73-5.73-4.51-8.08-5.4a1.37,1.37,0,0,1,0-.19c.42-2.76,8.72-22.79,10.53-26.19s3.15-4.43,3.15-4.43c11.25-5.88,11.55-7.37,15.55-16.55,3.76-8.63,7.45-25.09,7.45-25.09a27.72,27.72,0,0,0-6.89-4.07s-5.38-2.17-8.8-2.25c0,0-8.48,14.53-11.75,23.35-3.48,9.39-4.3,10.67-.27,22.71,0,0,.26,1.67-.8,5.37s-8.82,24-10.43,26.24l-.2.26a20.88,20.88,0,0,0-8.27-1.46c-1.39,0-3,.41-3.39,1.87a2.23,2.23,0,0,0,0,1.06,4.72,4.72,0,0,0,1.68,2.28,31.75,31.75,0,0,0,9.23,5,40.44,40.44,0,0,0,9.8,2.3A2.31,2.31,0,0,0,171.61,387.58Z" style="fill: rgb(224, 224, 224); transform-origin: 173.878px 346.185px;" id="elnxy6r6n4wx" class="animable"></path><path d="M171.61,387.58a1.83,1.83,0,0,1,.16.73,2.35,2.35,0,0,1-2.44,2.43c-.59,0-1.23-.11-1.93-.21a44.28,44.28,0,0,1-4.72-1,40.78,40.78,0,0,1-5.68-2,28.41,28.41,0,0,1-6.24-3.52,11.38,11.38,0,0,1-1.48-1.32,3.58,3.58,0,0,1-.95-1.85,2.19,2.19,0,0,1,.78-2,4,4,0,0,1,2.07-.76,20.47,20.47,0,0,1,9.08,1.4l-.23.06a20,20,0,0,0,1.7-3.33c.52-1.17,1-2.38,1.53-3.62,1-2.47,2-5,3.05-7.7s2.06-5.4,3.08-8.23c.49-1.42,1-2.84,1.4-4.32a14.87,14.87,0,0,0,.59-4.52v0c-.52-1.58-1-3.18-1.51-4.83a31.4,31.4,0,0,1-1.09-5.08,14.93,14.93,0,0,1,.3-5.32,42.63,42.63,0,0,1,1.64-5.14c2.38-6.86,5.87-13.52,9.51-20.23q1.56-2.87,3.18-5.66l.08-.14h.15a20.1,20.1,0,0,1,4.35.76c1.41.39,2.78.84,4.13,1.36A30,30,0,0,1,196,305.4a19.12,19.12,0,0,1,3.49,2.43l.11.09,0,.15c-1,4.53-2.18,8.94-3.4,13.19A102.56,102.56,0,0,1,192,333.48c-.84,1.9-1.62,3.8-2.55,5.6a16.2,16.2,0,0,1-3.55,4.8,28,28,0,0,1-4.66,3.32c-1.61,1-3.22,1.8-4.79,2.63l0,0a16.24,16.24,0,0,0-3,4.21c-.79,1.51-1.45,3.05-2.11,4.54-1.3,3-2.48,5.79-3.57,8.42s-2.06,5.07-2.93,7.32c-.44,1.13-.84,2.2-1.21,3.23a18.86,18.86,0,0,0-.87,2.94l-.07-.12a19.13,19.13,0,0,1,7.4,4.65,7.19,7.19,0,0,1,1.27,1.86,4.68,4.68,0,0,1,.27.72,7.79,7.79,0,0,0-1.62-2.51,19.53,19.53,0,0,0-7.4-4.51l-.09,0,0-.09a18.11,18.11,0,0,1,.86-3c.36-1,.75-2.12,1.18-3.25.85-2.26,1.82-4.71,2.89-7.35s2.24-5.46,3.53-8.44,2.53-6.28,5.22-8.93h0l0,0c1.56-.83,3.17-1.67,4.76-2.63a28.18,28.18,0,0,0,4.58-3.27c2.9-2.58,4.28-6.49,6-10.27a102.68,102.68,0,0,0,4.16-12.16c1.21-4.25,2.34-8.65,3.38-13.17l.08.24a18.93,18.93,0,0,0-3.41-2.35,30.28,30.28,0,0,0-3.81-1.82c-1.33-.51-2.69-1-4.07-1.34a19.25,19.25,0,0,0-4.23-.74l.23-.13c-1.08,1.85-2.13,3.74-3.18,5.65-3.63,6.71-7.11,13.34-9.48,20.15a43.36,43.36,0,0,0-1.63,5.08,14.69,14.69,0,0,0-.3,5.15,31.21,31.21,0,0,0,1.07,5c.45,1.63,1,3.23,1.5,4.81v0h0c.12,3.3-1.05,6.24-2,9.07s-2.07,5.57-3.1,8.23-2,5.23-3.08,7.7c-.51,1.24-1,2.45-1.54,3.63a19.93,19.93,0,0,1-1.77,3.4l-.08.12-.15-.06a20.41,20.41,0,0,0-8.88-1.41,3.78,3.78,0,0,0-1.9.68,1.8,1.8,0,0,0-.66,1.7c.19,1.31,1.31,2.19,2.28,3a28.08,28.08,0,0,0,6.16,3.52,40.81,40.81,0,0,0,5.63,2.05,42,42,0,0,0,4.69,1.05c.69.11,1.33.2,1.91.24a2.18,2.18,0,0,0,1.46-.45,2.27,2.27,0,0,0,.91-1.84A3.71,3.71,0,0,0,171.61,387.58Z" style="fill: rgb(38, 50, 56); transform-origin: 173.954px 346.081px;" id="el6i05rm9ljhh" class="animable"></path><path d="M193,322a95.66,95.66,0,0,1-3.88,11.84c-3,6.85-3.39,8.37-10.65,12.35a4.37,4.37,0,0,1-3.72.21h0a4.33,4.33,0,0,1-2.54-2.73c-2.51-7.88-1.76-9.27.83-16.28a97.31,97.31,0,0,1,4.66-10.1s3.12-.95,7.38,3.9C188.27,324.82,193,322,193,322Z" style="fill: rgb(0, 255, 136); transform-origin: 181.834px 331.966px;" id="elujs4urraeb" class="animable"></path><path d="M154.31,381.45c0-.17,1.53,0,3.27-.49a8.51,8.51,0,0,0,2.81-1.59c.05,0-.09.41-.54.87a4.79,4.79,0,0,1-2.13,1.22A5,5,0,0,1,154.31,381.45Z" style="fill: rgb(38, 50, 56); transform-origin: 157.355px 380.562px;" id="ellgn32u7ib7r" class="animable"></path><path d="M165.38,386.07a5,5,0,0,1-2.32-2.49,4.91,4.91,0,0,1-.56-2.4c0-.64.22-1,.27-1a8.92,8.92,0,0,0,.75,3.14C164.33,385,165.49,386,165.38,386.07Z" style="fill: rgb(38, 50, 56); transform-origin: 163.943px 383.125px;" id="elgke2swagii6" class="animable"></path><g id="elbfyq4l37zji"><path d="M176.76,328.57a.75.75,0,1,1-.25-1A.76.76,0,0,1,176.76,328.57Z" style="fill: rgb(255, 255, 255); opacity: 0.3; transform-origin: 176.105px 328.202px;" class="animable"></path></g><g id="elrxyr83hghd"><path d="M179.27,337.27a.75.75,0,1,1-.24-1A.75.75,0,0,1,179.27,337.27Z" style="fill: rgb(255, 255, 255); opacity: 0.6; transform-origin: 178.619px 336.897px;" class="animable"></path></g><g id="elt6ayj1mwtue"><path d="M183.39,329.71a.73.73,0,0,1-1,.24.75.75,0,1,1,1-.24Z" style="fill: rgb(255, 255, 255); opacity: 0.6; transform-origin: 182.763px 329.303px;" class="animable"></path></g><g id="elj2ym28tmeij"><path d="M179.41,322.26a.75.75,0,0,1-1.27-.79.76.76,0,0,1,1-.24A.75.75,0,0,1,179.41,322.26Z" style="fill: rgb(255, 255, 255); opacity: 0.3; transform-origin: 178.785px 321.85px;" class="animable"></path></g><g id="elx56s8tpvwnb"><path d="M178.4,332a.59.59,0,1,1-.19-.81A.58.58,0,0,1,178.4,332Z" style="fill: rgb(255, 255, 255); opacity: 0.3; transform-origin: 177.9px 331.691px;" class="animable"></path></g><g id="elxco3cpt1xi9"><path d="M186.45,331.15a.59.59,0,0,1-1-.62.59.59,0,1,1,1,.62Z" style="fill: rgb(255, 255, 255); opacity: 0.3; transform-origin: 185.974px 330.802px;" class="animable"></path></g><g id="el2gpiaahw399"><path d="M175.25,333a.59.59,0,0,1-1-.62.59.59,0,1,1,1,.62Z" style="fill: rgb(255, 255, 255); opacity: 0.6; transform-origin: 174.774px 332.652px;" class="animable"></path></g><g id="elg0ti2as98q9"><path d="M184.71,334.56a.59.59,0,0,1-.81.19.58.58,0,0,1-.19-.81.59.59,0,0,1,1,.62Z" style="fill: rgb(255, 255, 255); opacity: 0.3; transform-origin: 184.197px 334.268px;" class="animable"></path></g><g id="elss1z5z09nxa"><path d="M175.89,338.05a.6.6,0,0,1-.81.19.59.59,0,0,1,.61-1A.59.59,0,0,1,175.89,338.05Z" style="fill: rgb(255, 255, 255); opacity: 0.3; transform-origin: 175.415px 337.756px;" class="animable"></path></g><g id="ela8cwfjivea"><path d="M180.74,334.67a.47.47,0,0,1-.64.15.46.46,0,1,1,.64-.15Z" style="fill: rgb(255, 255, 255); opacity: 0.3; transform-origin: 180.347px 334.43px;" class="animable"></path></g><g id="elm6sbtv3xxgb"><path d="M179.07,340.82a.46.46,0,1,1-.15-.64A.46.46,0,0,1,179.07,340.82Z" style="fill: rgb(255, 255, 255); opacity: 0.3; transform-origin: 178.682px 340.573px;" class="animable"></path></g><g id="elctjzkuxl0j7"><path d="M181.19,326.67a.47.47,0,1,1-.79-.5A.47.47,0,0,1,181,326,.47.47,0,0,1,181.19,326.67Z" style="fill: rgb(255, 255, 255); opacity: 0.3; transform-origin: 180.78px 326.442px;" class="animable"></path></g><g id="elm4opes5xcu"><path d="M184.47,325.87a.37.37,0,1,1,.44-.27A.35.35,0,0,1,184.47,325.87Z" style="fill: rgb(255, 255, 255); opacity: 0.6; transform-origin: 184.551px 325.511px;" class="animable"></path></g><g id="el0f9voj0pbzxv"><path d="M177.81,324.64a.37.37,0,0,1,.16-.72.37.37,0,1,1-.16.72Z" style="fill: rgb(255, 255, 255); opacity: 0.6; transform-origin: 177.919px 324.287px;" class="animable"></path></g><g id="el60xv8zdd3fa"><path d="M183.32,305.74s-4.94,9.13-6.3,12.68c-.44,1.12,9.85-.74,11.43-2.68s4-7.25,3.66-7.6S186.7,304.58,183.32,305.74Z" style="fill: rgb(255, 255, 255); opacity: 0.6; transform-origin: 184.574px 312.123px;" class="animable"></path></g><path d="M199.3,308.25a8.12,8.12,0,0,1-2.56.1,18.81,18.81,0,0,1-6-1.41,19.18,19.18,0,0,1-5.25-3.27,7.92,7.92,0,0,1-1.73-1.89,28.28,28.28,0,0,0,7.18,4.68A28.57,28.57,0,0,0,199.3,308.25Z" style="fill: rgb(38, 50, 56); transform-origin: 191.53px 305.094px;" id="el2c2v59k73lk" class="animable"></path><path d="M170.69,334.83a3.92,3.92,0,0,1,.16-1.08c.14-.69.39-1.68.72-2.89a61.84,61.84,0,0,1,3.48-9.2c1.63-3.47,3.28-6.52,4.46-8.74l1.42-2.61a4.8,4.8,0,0,1,.58-.93,4.35,4.35,0,0,1-.4,1c-.28.65-.72,1.56-1.27,2.69-1.1,2.26-2.7,5.33-4.32,8.79a82.3,82.3,0,0,0-3.6,9.08C171.16,333.34,170.77,334.85,170.69,334.83Z" style="fill: rgb(255, 255, 255); transform-origin: 176.1px 322.105px;" id="elwmlxbngym9a" class="animable"></path><path d="M197.12,308.68a6.33,6.33,0,0,1-2.08-.08,18.77,18.77,0,0,1-4.84-1.4,18.47,18.47,0,0,1-4.29-2.64,6.11,6.11,0,0,1-1.47-1.48,36.75,36.75,0,0,0,6,3.64A37.51,37.51,0,0,0,197.12,308.68Z" style="fill: rgb(255, 255, 255); transform-origin: 190.78px 305.905px;" id="eli3vbju1m6t" class="animable"></path><path d="M170,389a2.57,2.57,0,0,1-.89.08,19.08,19.08,0,0,1-2.41-.11,28.23,28.23,0,0,1-7.7-2.06,35.08,35.08,0,0,1-3.93-2,20.77,20.77,0,0,1-3-2,5.92,5.92,0,0,1-1.54-1.89,1.79,1.79,0,0,1-.26-.86,6.88,6.88,0,0,0,2,2.47,25.45,25.45,0,0,0,3,1.87,41.53,41.53,0,0,0,3.89,1.91,32.72,32.72,0,0,0,7.54,2.17C168.7,388.93,170,388.94,170,389Z" style="fill: rgb(255, 255, 255); transform-origin: 160.135px 384.625px;" id="ela5trkc29zrk" class="animable"></path><g id="ela1sn5qn5khj"><g style="opacity: 0.6; transform-origin: 158.56px 382.096px;" class="animable"><path d="M159.94,383.28l.66-2.76a7,7,0,0,1-4.08,1.72l0,.07a29.76,29.76,0,0,0,2.73,1.31.54.54,0,0,0,.46,0A.53.53,0,0,0,159.94,383.28Z" style="fill: rgb(255, 255, 255); transform-origin: 158.56px 382.096px;" id="ele3itqt2rldg" class="animable"></path></g></g><path d="M134.32,364.34s11.76-15.76,14.43-17.64,11.12-2.9,15.55-3.25c4.91-.39,16.75,6,17.81,9s-.21,4.58-3.43,5.25c0,0,3.66,4.21,3.18,6.79s-4.39,2.82-4.39,2.82a8.13,8.13,0,0,1,0,4.38c-.71,2.46-4.43,2.3-5,1.05-.06-.13-2-2.37-3.27-2.38s-6.52-.39-7.07.45,2.39,1,5.15,1.56,4.85,2.93,4.11,5-1.49,2.65-4.16,2.48-10.44.43-10.44.43-7.65,6.72-12.53,7.88a62.12,62.12,0,0,1-12.19,1.09l-5.44-20.73Z" style="fill: rgb(174, 116, 97); transform-origin: 154.553px 366.343px;" id="eldq7q9cmog5t" class="animable"></path><path d="M177.47,367.3c-.05.05-.82-.84-2.24-2.08a21.9,21.9,0,0,0-2.63-2,9.49,9.49,0,0,0-3.63-1.53,30.57,30.57,0,0,0-7.31-.16,26,26,0,0,1-3.06.22,13,13,0,0,1,3-.58,25.91,25.91,0,0,1,7.45,0,9.07,9.07,0,0,1,2.07.65,14.12,14.12,0,0,1,1.72,1,17.49,17.49,0,0,1,2.62,2.1A9.4,9.4,0,0,1,177.47,367.3Z" style="fill: rgb(111, 68, 57); transform-origin: 168.035px 364.101px;" id="eltgl31yf04b" class="animable"></path><path d="M178.68,357.69a19.27,19.27,0,0,1-2.49-1.53c-.75-.49-1.65-1.07-2.66-1.7-.5-.31-1-.63-1.6-.94a7.84,7.84,0,0,0-1.76-.77,20.41,20.41,0,0,0-3.8-.12c-1.19,0-2.26.11-3.15.16a18.93,18.93,0,0,1-2.92.1,13.86,13.86,0,0,1,2.88-.47c.9-.1,2-.2,3.17-.27a18.77,18.77,0,0,1,3.93.09,8,8,0,0,1,1.9.84c.57.32,1.1.65,1.61,1,1,.65,1.88,1.27,2.61,1.8A14.16,14.16,0,0,1,178.68,357.69Z" style="fill: rgb(111, 68, 57); transform-origin: 169.49px 354.888px;" id="elm1m5vuzdt3r" class="animable"></path><path d="M32.35,372.93a5.61,5.61,0,0,1,.86,0l2.45.15,9,.62L74.41,376l2.24.18-.28.24c.76-11.09,1.44-21,1.93-28.25.27-3.55.49-6.43.64-8.47.09-1,.15-1.73.2-2.3a6.69,6.69,0,0,1,.1-.8,4.21,4.21,0,0,1,0,.81c0,.57-.06,1.34-.1,2.3-.12,2-.28,4.93-.48,8.49-.45,7.22-1.08,17.16-1.77,28.25l0,.27-.26,0-2.25-.18-29.71-2.4-9-.78-2.45-.24A4.84,4.84,0,0,1,32.35,372.93Z" style="fill: rgb(38, 50, 56); transform-origin: 55.8048px 356.66px;" id="elgziepe0vvw" class="animable"></path></g><defs>     <filter id="active" height="200%">         <feMorphology in="SourceAlpha" result="DILATED" operator="dilate" radius="2"></feMorphology>                <feFlood flood-color="#32DFEC" flood-opacity="1" result="PINK"></feFlood>        <feComposite in="PINK" in2="DILATED" operator="in" result="OUTLINE"></feComposite>        <feMerge>            <feMergeNode in="OUTLINE"></feMergeNode>            <feMergeNode in="SourceGraphic"></feMergeNode>        </feMerge>    </filter>    <filter id="hover" height="200%">        <feMorphology in="SourceAlpha" result="DILATED" operator="dilate" radius="2"></feMorphology>                <feFlood flood-color="#ff0000" flood-opacity="0.5" result="PINK"></feFlood>        <feComposite in="PINK" in2="DILATED" operator="in" result="OUTLINE"></feComposite>        <feMerge>            <feMergeNode in="OUTLINE"></feMergeNode>            <feMergeNode in="SourceGraphic"></feMergeNode>        </feMerge>            <feColorMatrix type="matrix" values="0   0   0   0   0                0   1   0   0   0                0   0   0   0   0                0   0   0   1   0 "></feColorMatrix>    </filter></defs></svg>